<svg width="208" height="155" viewBox="0 0 208 155" fill="none" xmlns="http://www.w3.org/2000/svg">
<g clip-path="url(#clip0_337_203)">
<mask id="mask0_337_203" style="mask-type:luminance" maskUnits="userSpaceOnUse" x="0" y="0" width="208" height="155">
<path d="M208 0H0V155H208V0Z" fill="white"/>
</mask>
<g mask="url(#mask0_337_203)">
<path d="M151.881 147.273H147.742L145.772 131.357H151.881V147.273Z" fill="#9E616A"/>
<path d="M154.065 154.423H151.097L150.567 151.629L149.211 154.423H141.339C140.962 154.423 140.594 154.303 140.29 154.08C139.986 153.857 139.762 153.543 139.65 153.184C139.537 152.824 139.543 152.439 139.666 152.083C139.789 151.728 140.023 151.421 140.333 151.207L146.62 146.878V144.054L153.232 144.447L154.065 154.423Z" fill="#2F2E41"/>
<path d="M176.469 142.066L173.147 144.528L162.042 132.928L166.943 129.294L176.469 142.066Z" fill="#9E616A"/>
<path d="M182.5 146.503L180.118 148.269L178.021 146.342L178.605 149.392L172.288 154.075C171.985 154.299 171.618 154.422 171.241 154.423C170.864 154.425 170.496 154.307 170.191 154.086C169.885 153.864 169.659 153.551 169.545 153.193C169.431 152.834 169.435 152.449 169.556 152.092L172.01 144.879L170.32 142.612L175.861 138.994L182.5 146.503Z" fill="#2F2E41"/>
<path d="M156.699 65.1553C156.699 65.1553 164.552 71.9193 160.929 91.202L156.506 110.096L170.931 133.956L166.331 139.535L147.578 113.709L140.783 97.8159L138.876 69.5294L156.699 65.1553Z" fill="#2F2E41"/>
<path d="M144.528 102.345L144.056 109.638L145.501 140.716L152.303 139.535L153.602 117.408L144.528 102.345Z" fill="#2F2E41"/>
<path d="M57.2485 151.016L60.9497 151.015L62.7102 136.782H57.248L57.2485 151.016Z" fill="#FFB6B6"/>
<path d="M56.3047 149.811H57.3464L61.4136 148.162L63.5934 149.81C64.8253 149.811 66.007 150.299 66.8781 151.167C67.7492 152.035 68.2386 153.213 68.2386 154.442V154.592L56.3049 154.593L56.3047 149.811Z" fill="#2F2E41"/>
<path d="M71.5911 148.69L75.2011 149.503L80.0632 136.006L74.735 134.806L71.5911 148.69Z" fill="#FFB6B6"/>
<path d="M70.9364 147.308L71.9525 147.536L76.2841 146.821L78.0461 148.908C79.2477 149.179 80.2926 149.914 80.9504 150.953C81.6082 151.991 81.8254 153.248 81.5541 154.446L81.5209 154.593L69.8801 151.972L70.9364 147.308Z" fill="#2F2E41"/>
<path d="M52.5612 64.0005C50.826 69.2185 51.0094 74.8825 52.9783 80.9615L53.8199 115.188C53.8199 115.188 52.5659 137.633 56.6124 145.531H62.4808L65.3864 113.138L65.7512 91.3957L78.3325 109.739L70.3191 145.001L77.5418 145.645L90.5454 107.377L74.5015 70.2507L52.5612 64.0005Z" fill="#2F2E41"/>
<path d="M120.237 49.1376C124.726 45.1047 131.402 43.0768 137.003 45.3382C131.258 48.5183 126.827 53.6218 124.492 59.7459C123.601 62.111 122.856 64.8341 120.663 66.1003C119.299 66.8882 117.601 66.9267 116.071 66.5463C114.541 66.166 113.139 65.4035 111.756 64.6487L111.362 64.6398C113.129 58.8786 115.749 53.1705 120.237 49.1376Z" fill="#E6E6E6"/>
<path d="M136.972 45.4607C132.012 46.0998 127.38 48.2808 123.734 51.6941C122.936 52.415 122.257 53.2568 121.721 54.1885C121.23 55.113 120.995 56.1518 121.042 57.1972C121.066 58.1728 121.204 59.1679 120.99 60.1324C120.874 60.6244 120.654 61.0863 120.345 61.4877C120.037 61.8891 119.647 62.2209 119.2 62.4614C118.104 63.0895 116.847 63.2876 115.611 63.4386C114.239 63.6063 112.811 63.7589 111.623 64.5263C111.479 64.6193 111.343 64.3912 111.486 64.2984C113.553 62.9631 116.169 63.4489 118.391 62.5578C119.428 62.1419 120.345 61.412 120.67 60.3084C120.954 59.3434 120.813 58.3171 120.78 57.3295C120.719 56.3104 120.909 55.2919 121.334 54.363C121.82 53.4071 122.465 52.5406 123.242 51.8006C124.966 50.1068 126.946 48.6937 129.109 47.6131C131.572 46.3661 134.23 45.5483 136.969 45.1951C137.139 45.1733 137.14 45.439 136.972 45.4607Z" fill="white"/>
<path d="M124.843 50.5262C124.351 49.8385 124.121 48.9991 124.193 48.1579C124.265 47.3167 124.635 46.5284 125.236 45.9338C125.358 45.8139 125.551 45.9974 125.429 46.1175C124.868 46.6701 124.523 47.4044 124.458 48.1879C124.392 48.9714 124.61 49.7525 125.071 50.3901C125.171 50.5288 124.942 50.6641 124.843 50.5262Z" fill="white"/>
<path d="M120.964 56.7042C122.669 57.0053 124.425 56.6548 125.881 55.7226C126.026 55.6301 126.162 55.8582 126.018 55.9506C124.5 56.9178 122.672 57.2789 120.899 56.9616C120.73 56.9313 120.796 56.674 120.964 56.7042Z" fill="white"/>
<path d="M131.593 46.7175C131.728 47.0231 131.936 47.2906 132.2 47.4959C132.464 47.7013 132.775 47.8381 133.105 47.8941C133.274 47.9223 133.208 48.1796 133.04 48.1516C132.675 48.088 132.332 47.9365 132.04 47.7102C131.748 47.484 131.516 47.1899 131.365 46.8536C131.348 46.8231 131.343 46.7874 131.352 46.7535C131.36 46.7197 131.381 46.6904 131.411 46.6716C131.441 46.6537 131.477 46.6485 131.511 46.6571C131.546 46.6657 131.575 46.6874 131.593 46.7175Z" fill="white"/>
<path d="M143.17 64.7868C143.064 64.7721 142.957 64.7575 142.85 64.7445C141.421 64.5555 139.979 64.4824 138.538 64.5262C138.427 64.5278 138.314 64.5311 138.203 64.5359C134.733 64.6782 131.32 65.4615 128.137 66.8461C126.87 67.3982 125.648 68.0456 124.481 68.7826C122.868 69.8005 121.201 71.032 119.399 71.4472C119.211 71.4926 119.021 71.5264 118.829 71.5483L111.382 65.119C111.372 65.0959 111.361 65.0745 111.352 65.0513L111.042 64.8082C111.1 64.766 111.161 64.7234 111.218 64.6812C111.251 64.6566 111.286 64.6334 111.32 64.6088C111.342 64.5928 111.365 64.5769 111.385 64.5612C111.392 64.5559 111.4 64.5506 111.406 64.547C111.426 64.5313 111.445 64.5188 111.464 64.5048C111.802 64.2661 112.142 64.0293 112.485 63.7945C112.485 63.7945 112.486 63.7928 112.489 63.7926C115.083 61.9785 117.883 60.4777 120.832 59.3214C120.92 59.2881 121.01 59.253 121.102 59.2227C122.43 58.7304 123.796 58.3472 125.186 58.0768C125.948 57.9312 126.716 57.8242 127.489 57.7561C129.486 57.584 131.497 57.726 133.45 58.1772C137.342 59.077 140.902 61.208 143.011 64.5313C143.065 64.6163 143.117 64.7 143.17 64.7868Z" fill="#E6E6E6"/>
<path d="M143.071 64.8668C138.725 62.3996 133.71 61.3605 128.737 61.8972C127.665 61.9938 126.614 62.2583 125.625 62.681C124.674 63.1239 123.859 63.8126 123.265 64.6755C122.696 65.469 122.205 66.3464 121.452 66.988C121.061 67.3107 120.607 67.5475 120.118 67.6828C119.629 67.8181 119.117 67.8489 118.616 67.7731C117.362 67.6167 116.238 67.0202 115.16 66.3989C113.963 65.709 112.731 64.9735 111.319 64.8731C111.148 64.861 111.177 64.597 111.348 64.6092C113.804 64.7837 115.599 66.7416 117.911 67.3641C118.991 67.6546 120.164 67.6226 121.09 66.9364C121.899 66.3363 122.406 65.4319 122.976 64.6235C123.543 63.7733 124.31 63.0743 125.21 62.5877C126.175 62.1161 127.213 61.8116 128.281 61.6874C130.68 61.3696 133.114 61.4297 135.494 61.8657C138.213 62.3483 140.829 63.2911 143.23 64.6533C143.378 64.7377 143.219 64.9506 143.071 64.8668Z" fill="white"/>
<path d="M130.328 61.6304C130.351 60.7864 130.674 59.978 131.24 59.3496C131.805 58.7212 132.576 58.3137 133.416 58.1999C133.585 58.1774 133.628 58.4396 133.458 58.462C132.677 58.5666 131.958 58.9463 131.433 59.5325C130.908 60.1187 130.61 60.8729 130.593 61.659C130.589 61.8298 130.324 61.8002 130.328 61.6304Z" fill="white"/>
<path d="M123.501 64.2351C124.68 65.4987 126.294 66.2727 128.02 66.4029C128.191 66.4157 128.162 66.6796 127.991 66.6669C126.195 66.5281 124.518 65.7191 123.294 64.4015C123.177 64.2758 123.385 64.1101 123.501 64.2351Z" fill="white"/>
<path d="M138.018 62.6417C137.941 62.9664 137.946 63.3052 138.033 63.6275C138.119 63.9498 138.285 64.2457 138.514 64.4884C138.632 64.6125 138.424 64.7782 138.307 64.6549C138.054 64.3855 137.872 64.0585 137.775 63.7026C137.679 63.3467 137.671 62.9727 137.753 62.6132C137.758 62.5786 137.776 62.5472 137.803 62.5254C137.831 62.5035 137.865 62.4928 137.9 62.4955C137.935 62.4994 137.967 62.517 137.989 62.5444C138.011 62.5718 138.022 62.6068 138.018 62.6417Z" fill="white"/>
<path d="M12.3621 150.757C12.0125 152.065 11.0939 153.154 9.98483 153.947C9.80401 154.077 9.61836 154.197 9.4303 154.31C9.37244 154.344 9.31457 154.38 9.25429 154.411C9.18919 154.449 9.1241 154.486 9.059 154.519H3.84395C3.74992 154.329 3.6583 154.137 3.56668 153.947C1.33166 149.264 -0.237916 144.211 0.0297077 139.065C0.135884 137.068 0.55653 135.101 1.27621 133.235C2.70836 129.516 5.32191 126.297 8.91675 124.677C9.00596 124.636 9.09999 124.595 9.19161 124.557C9.16267 124.66 9.13374 124.761 9.10481 124.865C8.71914 126.25 8.44661 127.664 8.28988 129.093C8.27542 129.204 8.26336 129.314 8.25372 129.427C7.91119 132.874 8.21534 136.354 9.15062 139.69C9.15303 139.697 9.15543 139.706 9.15785 139.714C9.3628 140.452 9.60069 141.178 9.87151 141.894C10.0837 142.459 10.3127 143.017 10.5635 143.565C11.6099 145.865 13.0131 148.317 12.3621 150.757Z" fill="#E6E6E6"/>
<path d="M9.2567 124.665C9.20606 124.733 9.15542 124.797 9.1048 124.865C8.04583 126.264 7.1466 127.777 6.42374 129.374C6.38516 129.454 6.349 129.533 6.31765 129.615C5.3272 131.846 4.69111 134.217 4.43223 136.644C4.42943 136.661 4.42782 136.677 4.42741 136.694C4.36713 137.262 4.33097 137.834 4.3165 138.406C4.26289 139.478 4.37924 140.552 4.66128 141.589C4.91844 142.435 5.36907 143.21 5.9777 143.853C6.03797 143.918 6.09825 143.983 6.16335 144.045C6.21157 144.096 6.26461 144.146 6.31524 144.194C6.80227 144.658 7.33511 145.089 7.7932 145.586C8.00317 145.809 8.19278 146.051 8.35979 146.307C8.62634 146.738 8.79851 147.219 8.865 147.721C8.93149 148.222 8.89078 148.732 8.74555 149.216C8.41766 150.433 7.66783 151.459 6.90112 152.437C6.51777 152.928 6.12236 153.423 5.77999 153.947C5.65463 154.135 5.53889 154.324 5.43282 154.519H5.12903C5.23029 154.324 5.3412 154.135 5.46175 153.947C6.34178 152.565 7.5931 151.377 8.24167 149.856C8.68047 148.829 8.81308 147.666 8.25854 146.658C8.09602 146.366 7.89936 146.093 7.67266 145.846C7.23145 145.348 6.70343 144.923 6.22364 144.473C6.10309 144.36 5.98495 144.245 5.87163 144.125C5.27085 143.516 4.80725 142.787 4.51181 141.985C4.17723 140.967 4.01905 139.9 4.04407 138.829C4.04407 138.146 4.08024 137.459 4.14774 136.776C4.15498 136.689 4.16462 136.601 4.17427 136.512C4.66733 132.215 6.30483 128.129 8.91675 124.677C8.96497 124.61 9.0156 124.545 9.06624 124.48C9.1699 124.345 9.36037 124.533 9.2567 124.665Z" fill="white"/>
<path d="M4.27163 136.799C3.43652 136.659 2.67847 136.228 2.13284 135.582C1.58721 134.936 1.28955 134.118 1.293 133.274C1.29346 133.24 1.30731 133.207 1.33162 133.182C1.35593 133.158 1.38882 133.144 1.42334 133.143C1.45787 133.142 1.49134 133.155 1.5167 133.178C1.54206 133.202 1.55734 133.234 1.55931 133.268C1.55464 134.054 1.83199 134.816 2.34131 135.417C2.85063 136.017 3.55836 136.416 4.33678 136.541C4.5059 136.569 4.43979 136.826 4.27163 136.799Z" fill="white"/>
<path d="M5.91082 143.902C7.32962 142.913 8.3225 141.427 8.69149 139.741C8.72792 139.574 8.98609 139.639 8.94971 139.806C8.56245 141.56 7.52605 143.104 6.04735 144.129C5.90634 144.227 5.77058 143.999 5.91082 143.902Z" fill="white"/>
<path d="M6.34406 129.346C6.65587 129.468 6.993 129.51 7.32518 129.469C7.65736 129.428 7.97418 129.306 8.24719 129.113C8.38689 129.013 8.5225 129.242 8.38371 129.341C8.08108 129.553 7.73101 129.687 7.36411 129.733C6.9972 129.779 6.62462 129.735 6.27891 129.604C6.24528 129.594 6.21659 129.572 6.19866 129.542C6.18073 129.512 6.17491 129.477 6.18237 129.443C6.19117 129.409 6.21309 129.379 6.24337 129.361C6.27364 129.343 6.30983 129.338 6.34406 129.346Z" fill="white"/>
<path d="M27.3442 133.961C27.2598 134.026 27.173 134.091 27.0886 134.158C25.9439 135.032 24.8723 135.996 23.8843 137.043C23.8072 137.122 23.73 137.204 23.6553 137.286L23.6529 137.288C21.3103 139.824 19.4581 142.769 18.1895 145.976L18.1823 145.997C18.1799 146.005 18.1774 146.009 18.175 146.017C17.6722 147.3 17.2668 148.62 16.9623 149.964C16.6681 151.276 16.427 152.683 15.9665 153.947C15.8966 154.142 15.8195 154.334 15.7375 154.519H5.01807C5.05423 154.329 5.09281 154.137 5.13138 153.947C5.67667 151.162 6.52892 148.445 7.6726 145.846C7.71118 145.759 7.74976 145.673 7.79316 145.586C8.38357 144.302 9.07783 143.068 9.86905 141.896L9.86922 141.895L9.87053 141.894C10.305 141.255 10.7727 140.638 11.2699 140.045C12.5593 138.516 14.0825 137.198 15.7833 136.141C15.7929 136.134 15.805 136.129 15.8146 136.122C19.1997 134.028 23.2117 133.031 27.0476 133.894H27.05C27.1489 133.915 27.2453 133.937 27.3442 133.961Z" fill="#E6E6E6"/>
<path d="M27.3321 134.088C27.2501 134.11 27.1682 134.134 27.0886 134.158C25.3989 134.64 23.7679 135.306 22.2256 136.146C22.1484 136.187 22.0712 136.23 21.9941 136.274C19.8627 137.46 17.9279 138.967 16.2583 140.742C16.257 140.744 16.2561 140.745 16.2559 140.747C16.2366 140.766 16.2149 140.788 16.198 140.807C15.8122 141.221 15.4409 141.651 15.0889 142.093C14.4004 142.918 13.8455 143.845 13.4446 144.841C13.1382 145.671 13.0301 146.561 13.1288 147.44C13.136 147.529 13.148 147.615 13.1601 147.704C13.1697 147.774 13.1794 147.844 13.1914 147.916C13.3506 148.88 13.6254 149.846 13.5483 150.829C13.5013 151.333 13.3479 151.821 13.0982 152.262C12.8484 152.702 12.508 153.085 12.0992 153.385C11.8214 153.599 11.5244 153.787 11.212 153.947C10.7653 154.177 10.2999 154.368 9.82083 154.519H8.87329C9.00108 154.483 9.12645 154.447 9.25423 154.411C9.70769 154.283 10.1529 154.129 10.5875 153.947C10.8358 153.844 11.0774 153.725 11.3108 153.591C12.2801 153.036 13.0878 152.185 13.2565 151.048C13.4036 150.053 13.1191 149.058 12.9503 148.084C12.9214 147.916 12.8949 147.75 12.8804 147.584C12.7653 146.741 12.8352 145.883 13.0854 145.069C13.4323 144.055 13.9509 143.107 14.6188 142.267C15.0319 141.719 15.4729 141.194 15.94 140.692C15.9979 140.627 16.0582 140.562 16.1208 140.497C17.8256 138.709 19.7939 137.191 21.9579 135.995H21.9603C23.5694 135.102 25.2764 134.397 27.0476 133.894H27.05C27.1296 133.87 27.2116 133.846 27.2911 133.824C27.4575 133.781 27.4961 134.043 27.3321 134.088Z" fill="white"/>
<path d="M16.0255 140.783C15.4432 140.17 15.0983 139.371 15.0526 138.528C15.0068 137.685 15.2631 136.853 15.7757 136.181C15.8799 136.045 16.0962 136.2 15.9918 136.336C15.5134 136.961 15.2747 137.736 15.3189 138.521C15.3631 139.306 15.6873 140.049 16.233 140.617C16.3514 140.74 16.1433 140.906 16.0255 140.783Z" fill="white"/>
<path d="M13.0454 147.438C14.7754 147.5 16.4652 146.91 17.7781 145.785C17.9081 145.674 18.0749 145.881 17.945 145.992C16.5766 147.16 14.8168 147.771 13.0168 147.702C12.8452 147.696 12.8748 147.432 13.0454 147.438Z" fill="white"/>
<path d="M22.1805 136.077C22.3562 136.361 22.6 136.597 22.8898 136.764C23.1797 136.931 23.5065 137.023 23.8411 137.033C24.0127 137.037 23.9829 137.301 23.8124 137.297C23.4429 137.284 23.082 137.182 22.7613 136.998C22.4407 136.814 22.17 136.555 21.973 136.243C21.952 136.215 21.9423 136.181 21.9461 136.146C21.9499 136.111 21.9667 136.079 21.9933 136.057C22.0209 136.035 22.056 136.025 22.0911 136.028C22.1261 136.032 22.1582 136.05 22.1805 136.077Z" fill="white"/>
<path d="M110.035 41.6186C109.788 41.9431 109.472 42.2096 109.11 42.3993C108.748 42.589 108.349 42.6972 107.94 42.7164C107.532 42.7356 107.124 42.6653 106.746 42.5104C106.368 42.3555 106.028 42.1198 105.751 41.82L96.6377 45.772L97.5254 40.6994L106.044 37.7242C106.58 37.2936 107.256 37.0741 107.943 37.1073C108.631 37.1404 109.282 37.4238 109.774 37.9039C110.266 38.3839 110.565 39.0272 110.613 39.7119C110.661 40.3965 110.455 41.075 110.035 41.6186Z" fill="#FFB8B8"/>
<path d="M103.953 43.2024L82.7849 52.6036L82.7395 52.5874L58.6131 44.0154C56.816 43.0789 55.4459 41.493 54.7834 39.5822C54.1208 37.6715 54.2159 35.5805 55.0492 33.7373C55.5111 32.719 56.184 31.8097 57.0238 31.0694C57.8635 30.3291 58.851 29.7745 59.9212 29.4421C60.9915 29.1097 62.1202 29.0071 63.233 29.1409C64.3459 29.2748 65.4177 29.6422 66.3779 30.2189L84.3325 41.0025L101.743 38.7528L103.953 43.2024Z" fill="#E6E6E6"/>
<path d="M208 154.714C208 154.752 207.993 154.789 207.978 154.824C207.964 154.858 207.943 154.89 207.916 154.916C207.89 154.943 207.858 154.964 207.823 154.978C207.788 154.993 207.751 155 207.713 155H0.294966C0.218872 155 0.145897 154.97 0.0920909 154.916C0.0382844 154.863 0.00805664 154.79 0.00805664 154.714C0.00805664 154.638 0.0382844 154.565 0.0920909 154.512C0.145897 154.458 0.218872 154.428 0.294966 154.428H207.713C207.751 154.428 207.788 154.435 207.823 154.449C207.858 154.464 207.89 154.485 207.916 154.511C207.943 154.538 207.964 154.57 207.978 154.604C207.993 154.639 208 154.676 208 154.714Z" fill="#CCCCCC"/>
<path d="M75.5481 71.3469L54.2091 67.9437C53.6494 67.765 53.1352 67.4677 52.7017 67.0721C52.2681 66.6765 51.9256 66.1921 51.6976 65.6521C51.4695 65.1121 51.3614 64.5292 51.3806 63.9436C51.3998 63.358 51.5459 62.7835 51.8088 62.2595L52.7765 60.3295L52.4006 40.0535C52.3553 37.416 53.0074 34.8132 54.2914 32.5068C55.5753 30.2005 57.4459 28.272 59.7148 26.9152L61.7957 25.6747L62.8473 23.012L72.5445 23.2478L72.5728 26.74L76.0456 32.2613L76.0455 32.2842L75.8275 62.3363L74.8704 65.4376L76.3176 69.0449L75.5481 71.3469Z" fill="#E6E6E6"/>
<path d="M68.5839 19.7011C73.4501 19.7011 77.3947 15.768 77.3947 10.9162C77.3947 6.06445 73.4501 2.13135 68.5839 2.13135C63.7178 2.13135 59.7729 6.06445 59.7729 10.9162C59.7729 15.768 63.7178 19.7011 68.5839 19.7011Z" fill="#FFB8B8"/>
<path d="M59.409 12.8312C59.1462 11.7273 59.2668 10.174 59.4153 9.06257C59.8047 6.14874 61.4277 3.37862 63.8934 1.73778C64.361 1.38373 64.9165 1.1636 65.5003 1.10112C66.0836 1.07684 66.7159 1.38818 66.895 1.94224C67.0419 1.57656 67.2625 1.24479 67.543 0.967406C67.8236 0.69002 68.1582 0.472905 68.5261 0.329464C69.2653 0.0470919 70.0604 -0.0596947 70.8481 0.0175694C72.3751 0.143062 73.8395 0.678392 75.086 1.56674C76.3324 2.4551 77.3144 3.66333 77.9277 5.06323C78.163 5.62064 78.8203 3.5617 79.1185 4.08838C79.3925 4.63583 79.8706 5.05461 80.4503 5.25509C81.0346 5.41764 81.2719 7.81773 81.5018 7.25807C81.6802 7.67167 81.7507 8.12356 81.7068 8.57165C81.6629 9.01974 81.5059 9.44946 81.2506 9.82078C80.9952 10.1921 80.6498 10.493 80.2464 10.6953C79.843 10.8977 79.3948 10.995 78.9436 10.9782C78.3489 10.956 77.7803 10.7379 77.1927 10.644C75.0915 10.3083 72.8625 11.8275 72.4133 13.9014C72.2525 13.3017 71.9955 12.7318 71.6525 12.2137C71.4783 11.956 71.2449 11.7435 70.9718 11.5939C70.6987 11.4442 70.3936 11.3618 70.0821 11.3534C69.4843 11.3757 68.9588 11.7654 68.5709 12.2195C68.183 12.6736 67.8917 13.2034 67.5009 13.6551C66.3544 14.9803 64.8036 18.071 63.1696 17.8456C61.8802 17.6677 59.7678 14.3383 59.409 12.8312Z" fill="#2F2E41"/>
<path d="M121.844 51.5733C121.906 51.1728 121.824 50.7634 121.611 50.4178C121.399 50.0723 121.071 49.8127 120.686 49.6853L96.9578 41.806C96.7304 41.7302 96.4895 41.7026 96.2507 41.7251L90.3034 42.2858L86.8909 42.6086L80.5936 43.2019C80.2134 43.2382 79.856 43.3992 79.5775 43.6598C79.2989 43.9204 79.115 44.2658 79.0545 44.6418L75.8572 64.5551C75.7967 64.9435 75.8708 65.3409 76.0674 65.6816C76.264 66.0223 76.5712 66.286 76.9384 66.4292L100.914 75.6564C101.026 75.7 101.143 75.7313 101.262 75.7498C101.436 75.7778 101.613 75.7791 101.787 75.7537L117.279 73.4644C117.645 73.4116 117.983 73.2429 118.245 72.9831C118.506 72.7233 118.677 72.3863 118.731 72.0222L121.844 51.5733Z" fill="white"/>
<path d="M77.4819 65.0262L101.457 74.2529C101.492 74.2667 101.53 74.2711 101.567 74.2658L117.057 71.9768C117.103 71.9705 117.146 71.9494 117.179 71.9168C117.212 71.8842 117.233 71.8418 117.239 71.7961L120.354 51.3469C120.362 51.297 120.351 51.2461 120.325 51.2031C120.298 51.16 120.258 51.1275 120.21 51.1109L120.05 51.0571L96.4808 43.2334C96.47 43.2296 96.4589 43.2269 96.4476 43.2254C96.4294 43.2221 96.4107 43.2211 96.3922 43.2226L81.8864 44.5912L80.7353 44.6988C80.6881 44.7039 80.6438 44.7242 80.6092 44.7566C80.5746 44.7891 80.5516 44.8319 80.5437 44.8786L77.347 64.7912C77.3391 64.8398 77.3483 64.8896 77.3728 64.9324C77.3974 64.9752 77.4358 65.0083 77.4819 65.0262Z" fill="#ABABAB"/>
<path d="M81.8865 44.5912L96.3922 43.2226C96.4108 43.2211 96.4294 43.2221 96.4477 43.2254C96.459 43.2269 96.4701 43.2296 96.4808 43.2334L120.05 51.0571L113.833 51.7133L111.506 51.9577L104.886 52.6551C104.866 52.6561 104.847 52.6559 104.828 52.6544C104.816 52.6509 104.804 52.6474 104.79 52.6436L81.8865 44.5912Z" fill="#2F2E41"/>
<path d="M76.9381 66.4305L100.913 75.6573C101.026 75.7006 101.143 75.7312 101.263 75.7485C101.437 75.7771 101.614 75.7794 101.788 75.7551L117.278 73.466C117.644 73.4129 117.982 73.2439 118.244 72.984C118.506 72.7241 118.677 72.387 118.732 72.0228L121.844 51.5733C121.89 51.2719 121.855 50.9636 121.743 50.6799C121.728 50.6422 121.712 50.6044 121.693 50.5689C121.57 50.3098 121.382 50.0866 121.148 49.9204C121.006 49.8194 120.851 49.7402 120.686 49.6857L120.658 49.6757L96.9592 41.806C96.8624 41.7752 96.7635 41.7512 96.6633 41.7343C96.5263 41.715 96.3875 41.7123 96.2499 41.7263L90.3036 42.2851L86.8914 42.6097L80.593 43.2026C80.3354 43.2266 80.0865 43.3085 79.8653 43.4424C79.8482 43.4506 79.8318 43.4604 79.8164 43.4715C79.8055 43.4786 79.795 43.4865 79.7851 43.4951C79.5919 43.6266 79.4275 43.7959 79.3021 43.9928C79.1766 44.1897 79.0927 44.41 79.0553 44.6402L75.8559 64.555C75.7955 64.9437 75.8697 65.3413 76.0665 65.6823C76.2632 66.0233 76.5706 66.2872 76.9381 66.4305ZM79.4798 44.7096C79.5187 44.471 79.6249 44.2482 79.786 44.0675C79.8348 44.0093 79.8893 43.9563 79.9489 43.9091C80.1115 43.778 80.3039 43.6886 80.5091 43.6486C80.5496 43.6402 80.5906 43.6345 80.6319 43.6313L91.2367 42.6324L96.2914 42.1528C96.3256 42.1489 96.3571 42.1494 96.3887 42.1476C96.4653 42.146 96.5418 42.1517 96.6172 42.1646C96.6866 42.1735 96.7549 42.1898 96.8209 42.2129L120.547 50.0926C120.566 50.0993 120.582 50.1056 120.601 50.1123C120.817 50.1923 121.006 50.3298 121.149 50.5098C121.262 50.6476 121.344 50.8076 121.391 50.9793C121.438 51.151 121.447 51.3306 121.419 51.5063L118.304 71.9579C118.263 72.2306 118.136 72.4831 117.94 72.6779C117.744 72.8728 117.491 72.9997 117.217 73.04L101.725 75.3288C101.503 75.3605 101.277 75.3348 101.068 75.2542L77.0927 66.0299C76.8179 65.9219 76.5881 65.724 76.4409 65.4687C76.2937 65.2133 76.238 64.9157 76.2828 64.6246L79.4798 44.7096Z" fill="#3F3D56"/>
<path d="M79.7335 43.6037C79.7462 43.5674 79.7685 43.5353 79.7981 43.5108C79.8079 43.503 79.8183 43.4959 79.8292 43.4896C79.8392 43.4858 79.8495 43.4795 79.8596 43.4756C79.9077 43.4563 79.9613 43.4554 80.01 43.473L80.5091 43.6486L104.888 52.2231L110.594 51.6221L113.787 51.2863L120.545 50.573L121.149 50.5098L121.267 50.4968C121.317 50.4922 121.368 50.5054 121.41 50.5341C121.452 50.5628 121.482 50.6052 121.496 50.6539C121.5 50.6652 121.502 50.6767 121.503 50.6884C121.508 50.7346 121.497 50.7813 121.473 50.8212C121.45 50.8612 121.413 50.8924 121.37 50.91C121.351 50.9179 121.331 50.9233 121.31 50.926L120.488 51.0119L113.833 51.7133L111.506 51.9577L104.886 52.6551C104.866 52.6561 104.847 52.6559 104.828 52.6544C104.816 52.6509 104.804 52.6474 104.79 52.6436L79.9488 43.9091L79.8645 43.8794C79.8452 43.873 79.8272 43.8631 79.8116 43.8502C79.774 43.8227 79.7462 43.784 79.7321 43.7396C79.7181 43.6953 79.7186 43.6477 79.7335 43.6037Z" fill="#3F3D56"/>
<path d="M101.328 75.8113C101.272 75.8023 101.222 75.7717 101.189 75.7259C101.155 75.6802 101.141 75.6231 101.149 75.5671L104.649 52.4094C104.658 52.353 104.689 52.3024 104.735 52.2685C104.781 52.2347 104.838 52.2205 104.895 52.2289L104.897 52.2292C104.953 52.2382 105.003 52.2689 105.036 52.3146C105.07 52.3603 105.084 52.4174 105.076 52.4734L101.576 75.6312C101.567 75.6875 101.536 75.7382 101.49 75.772C101.444 75.8058 101.387 75.8201 101.33 75.8116L101.328 75.8113Z" fill="#3F3D56"/>
<path d="M110.2 74.342L107.872 74.5869L110.595 51.6214C110.595 51.6214 113.704 51.0601 113.787 51.2852C113.838 51.4196 110.222 74.1947 110.2 74.342Z" fill="#3F3D56"/>
<path d="M79.8652 43.8792L79.8025 54.3522L98.3978 61.4167L105.076 52.4734L79.8652 43.8792Z" fill="#3F3D56"/>
<path d="M121.15 50.5102C120.995 50.3154 120.785 50.1703 120.548 50.0927L96.8221 42.2133C96.7555 42.1909 96.6871 42.1743 96.6176 42.1636C96.5419 42.1507 96.4652 42.1449 96.3884 42.1465L96.4269 41.9068L96.6644 41.7353L102.299 37.6682L121.114 43.4176L121.147 49.9205L121.15 50.5102Z" fill="#3F3D56"/>
<path d="M80.813 60.6918C80.8397 60.6944 80.8661 60.6999 80.8916 60.7083L88.1714 63.0922C88.2625 63.122 88.338 63.1867 88.3813 63.2721C88.4246 63.3574 88.4322 63.4564 88.4022 63.5473C88.3723 63.6382 88.3074 63.7135 88.2218 63.7566C88.1362 63.7998 88.0369 63.8073 87.9458 63.7775L80.666 61.3936C80.5815 61.3659 80.5102 61.3081 80.4657 61.2313C80.4212 61.1545 80.4067 61.064 80.4249 60.9772C80.4431 60.8904 80.4927 60.8133 80.5643 60.7606C80.6359 60.708 80.7244 60.6835 80.813 60.6918Z" fill="white"/>
<path d="M110.185 104.626C111.783 104.626 113.078 103.335 113.078 101.742C113.078 100.148 111.783 98.8569 110.185 98.8569C108.587 98.8569 107.292 100.148 107.292 101.742C107.292 103.335 108.587 104.626 110.185 104.626Z" fill="#F2F2F2"/>
<path d="M36.4074 115.203C38.0053 115.203 39.3006 113.912 39.3006 112.319C39.3006 110.726 38.0053 109.434 36.4074 109.434C34.8095 109.434 33.5142 110.726 33.5142 112.319C33.5142 113.912 34.8095 115.203 36.4074 115.203Z" fill="#F2F2F2"/>
<path d="M96.683 19.7687C98.2809 19.7687 99.5763 18.4772 99.5763 16.884C99.5763 15.2908 98.2809 13.9993 96.683 13.9993C95.0851 13.9993 93.7898 15.2908 93.7898 16.884C93.7898 18.4772 95.0851 19.7687 96.683 19.7687Z" fill="#F2F2F2"/>
<path d="M101.43 64.9346C101.055 65.097 100.649 65.1755 100.24 65.1645C99.8314 65.1535 99.43 65.0533 99.0644 64.8709C98.6987 64.6885 98.3776 64.4285 98.1237 64.109C97.8698 63.7895 97.6892 63.4184 97.5946 63.0218L87.7065 62.0257L90.9687 58.0337L99.8585 59.5916C100.537 59.4775 101.234 59.6155 101.818 59.9796C102.401 60.3437 102.831 60.9086 103.024 61.5672C103.218 62.2258 103.163 62.9323 102.869 63.5529C102.575 64.1736 102.063 64.6652 101.43 64.9346Z" fill="#FFB8B8"/>
<path d="M95.348 63.3509L72.2724 61.231L72.2407 61.1947L55.3996 41.9548C54.2912 40.2618 53.8739 38.2104 54.2331 36.2206C54.5923 34.2309 55.7008 32.4533 57.3316 31.2518C58.2339 30.5887 59.2669 30.1236 60.3624 29.8873C61.458 29.6509 62.5914 29.6486 63.688 29.8804C64.7845 30.1123 65.8194 30.573 66.7245 31.2324C67.6296 31.8917 68.3843 32.7348 68.9391 33.7059L79.3119 51.866L95.6021 58.3919L95.348 63.3509Z" fill="#E6E6E6"/>
<path d="M153.267 26.3506C152.694 22.1597 151.975 17.6601 149.01 14.6348C148.07 13.6748 146.944 12.9148 145.7 12.4004C144.457 11.886 143.122 11.628 141.776 11.6419C140.43 11.6558 139.101 11.9413 137.869 12.4812C136.636 13.0211 135.526 13.8043 134.606 14.7834C132.448 17.0788 131.495 20.302 131.407 23.447C131.32 26.5921 132.023 29.7022 132.802 32.751C136.926 32.8331 141.02 32.0297 144.806 30.3953C145.752 29.9856 146.684 29.5225 147.684 29.2687C148.684 29.015 149.397 29.6536 150.327 30.0989L150.837 29.124C151.255 29.8996 152.55 29.6697 153.019 28.9239C153.489 28.1782 153.386 27.2231 153.267 26.3506Z" fill="#2F2E41"/>
<path d="M136.918 49.7428L120.071 50.102C119.812 49.6561 119.429 49.2948 118.968 49.062C118.507 48.8292 117.989 48.735 117.475 48.7909C116.961 48.8467 116.475 49.0502 116.075 49.3766C115.676 49.703 115.38 50.1381 115.223 50.6292C115.067 51.1202 115.057 51.6459 115.195 52.1423C115.333 52.6388 115.613 53.0845 116.001 53.4253C116.388 53.7661 116.866 53.9873 117.378 54.062C117.889 54.1366 118.411 54.0615 118.88 53.8458C121.114 53.9724 138.595 56.4462 139.638 54.8519C140.697 53.2339 146.347 47.5234 146.347 47.5234L142.004 41.3589L136.918 49.7428Z" fill="#9E616A"/>
<path d="M141.024 30.4971C145.395 30.4971 148.939 26.9637 148.939 22.6051C148.939 18.2465 145.395 14.7131 141.024 14.7131C136.652 14.7131 133.108 18.2465 133.108 22.6051C133.108 26.9637 136.652 30.4971 141.024 30.4971Z" fill="#9E616A"/>
<path d="M153.701 37.7902C152.769 35.9392 152.315 33.6526 150.327 33.0525C148.984 32.6473 143.553 33.2546 142.329 33.9386C140.293 35.0764 142.138 37.2085 140.937 39.2036C139.631 41.3726 136.083 45.7254 134.777 47.8943C133.88 49.3854 136.903 53.7621 136.418 55.4325C135.932 57.1028 135.909 58.9776 136.736 60.5088C137.476 61.8794 136.405 63.0918 137.149 64.4601C137.923 65.8831 138.873 71.2037 138.153 72.6545L137.67 74.0968C142.456 74.3771 146.479 68.6774 151.234 68.077C152.416 67.9279 153.642 67.7331 154.615 67.0495C156.049 66.0426 156.616 64.2155 156.97 62.503C158.675 54.1325 157.524 45.434 153.701 37.7902Z" fill="#3F3D56"/>
<path d="M160.876 57.3343C160.209 55.5204 159.002 47.5897 159.002 47.5897L151.45 47.3689L155.142 56.4489L145.067 70.5124C145.067 70.5124 145.085 70.5433 145.119 70.5984C144.59 70.5136 144.046 70.5903 143.561 70.8184C143.076 71.0464 142.671 71.4152 142.399 71.8765C142.128 72.3378 142.002 72.8702 142.039 73.4038C142.076 73.9375 142.273 74.4477 142.605 74.8676C142.938 75.2875 143.39 75.5976 143.902 75.7573C144.414 75.917 144.962 75.9188 145.475 75.7626C145.989 75.6063 146.442 75.2993 146.778 74.8816C147.113 74.464 147.314 73.9552 147.354 73.4217C147.391 73.4429 147.435 73.4506 147.477 73.4434C147.519 73.4362 147.557 73.4145 147.585 73.3822C148.706 71.9794 161.542 59.1482 160.876 57.3343Z" fill="#9E616A"/>
<path d="M161.643 52.3258C160.95 49.4088 160.252 46.4758 159.083 43.7137C157.914 40.9516 156.241 38.3427 153.888 36.4767C153.136 35.8801 152.295 35.3535 151.352 35.168C150.408 34.9825 149.346 35.1901 148.683 35.8847C147.623 36.9962 147.942 38.7802 148.331 40.2641C149.477 44.6393 150.624 49.0145 151.77 53.3897C155.08 53.0398 158.39 52.69 161.7 52.3402L161.643 52.3258Z" fill="#3F3D56"/>
<path d="M150.722 23.6998C150.431 21.7906 150.126 19.8655 149.442 18.0678C148.757 16.2701 147.653 14.5863 146.069 13.568C143.562 11.9557 140.316 12.2666 137.505 13.1941C135.332 13.9113 133.209 15.0015 131.677 16.7541C130.143 18.5067 129.282 21.0075 129.853 23.2991C132.851 22.5928 135.85 21.8864 138.848 21.1801L138.52 21.4113C139.504 21.9008 140.364 22.6075 141.034 23.4777C141.703 24.348 142.166 25.3589 142.385 26.4337C142.599 27.5217 142.568 28.6435 142.295 29.7181C142.021 30.7927 141.511 31.7932 140.802 32.6473C142.847 31.924 144.892 31.2007 146.937 30.4774C148.199 30.031 149.55 29.5166 150.298 28.3715C151.166 27.0439 150.964 25.2842 150.722 23.6998Z" fill="#2F2E41"/>
</g>
</g>
<defs>
<clipPath id="clip0_337_203">
<rect width="208" height="155" fill="white"/>
</clipPath>
</defs>
</svg>
