<svg width="209" height="139" viewBox="0 0 209 139" fill="none" xmlns="http://www.w3.org/2000/svg">
<path d="M102.16 45.4502C101.935 45.4506 101.711 45.413 101.499 45.339L98.0911 44.1603C97.756 44.0434 97.4575 43.841 97.2252 43.5732C96.993 43.3055 96.8351 42.9817 96.7674 42.6341L96.0846 39.0951C96.0177 38.7471 96.0437 38.3877 96.1601 38.0529C96.2765 37.7182 96.4792 37.4199 96.7479 37.1881L99.476 34.8306C99.7451 34.5988 100.07 34.4413 100.42 34.374C100.769 34.3067 101.129 34.3319 101.466 34.447L104.877 35.6285C105.212 35.7444 105.512 35.9465 105.745 36.2144C105.977 36.4823 106.136 36.8066 106.203 37.1547L106.883 40.6908C106.949 41.039 106.923 41.3984 106.808 41.7335C106.692 42.0685 106.49 42.3675 106.223 42.6007L103.492 44.9582C103.122 45.2769 102.649 45.4517 102.16 45.4502ZM98.9271 42.0975L102.115 43.2095L104.668 41.0078L104.029 37.7023L100.841 36.5903L98.2917 38.7949L98.9271 42.0975Z" fill="#F5F5F5"/>
<path d="M141.964 35.1782C141.739 35.1785 141.516 35.1409 141.304 35.067L139.576 34.4693C139.241 34.3529 138.942 34.1506 138.71 33.8828C138.477 33.6149 138.32 33.2908 138.252 32.943L137.907 31.1527C137.84 30.805 137.866 30.4459 137.982 30.1112C138.098 29.7766 138.3 29.4781 138.567 29.2456L139.961 28.0502C140.229 27.8186 140.554 27.6615 140.903 27.5947C141.252 27.5278 141.612 27.5536 141.947 27.6694L143.672 28.2671C144.008 28.383 144.308 28.5851 144.54 28.853C144.773 29.1209 144.931 29.4452 144.999 29.7933L145.344 31.5836C145.411 31.9316 145.385 32.2911 145.269 32.6258C145.153 32.9606 144.95 33.2589 144.681 33.4907L143.288 34.6861C142.919 35.0019 142.45 35.1764 141.964 35.1782ZM140.418 32.3982L141.922 32.918L143.123 31.8783L142.822 30.3215L141.32 29.8016L140.117 30.858L140.418 32.3982Z" fill="#F5F5F5"/>
<path d="M189.683 61.3741C189.463 61.3725 189.245 61.3219 189.047 61.2257C188.849 61.1295 188.675 60.9902 188.538 60.8182L187.565 59.606C187.404 59.4055 187.299 59.1665 187.26 58.9129C187.221 58.6592 187.249 58.3999 187.342 58.1605L187.899 56.7149C187.993 56.4759 188.147 56.2655 188.348 56.105C188.549 55.9444 188.788 55.8394 189.042 55.8003L190.58 55.564C190.835 55.5255 191.095 55.5543 191.335 55.6475C191.575 55.7406 191.787 55.8948 191.949 56.0949L192.921 57.307C193.082 57.5075 193.187 57.7464 193.226 58.0001C193.265 58.2537 193.237 58.5132 193.144 58.7525L192.587 60.1982C192.493 60.4378 192.338 60.6484 192.137 60.809C191.936 60.9696 191.696 61.0745 191.441 61.1129L189.903 61.3491C189.83 61.363 189.757 61.3714 189.683 61.3741ZM190.812 56.6675H190.759L189.22 56.9039C189.159 56.9131 189.101 56.9382 189.052 56.9767C189.003 57.0152 188.965 57.0659 188.942 57.1236L188.384 58.5691C188.362 58.6265 188.355 58.689 188.364 58.75C188.373 58.811 188.399 58.8684 188.437 58.9166L189.41 60.1287C189.449 60.1762 189.5 60.2128 189.558 60.2352C189.615 60.2576 189.677 60.265 189.739 60.2566L191.277 60.0202C191.339 60.0116 191.397 59.9868 191.446 59.9482C191.495 59.9096 191.533 59.8586 191.556 59.8006L192.113 58.355C192.135 58.2975 192.142 58.2353 192.132 58.1744C192.123 58.1135 192.098 58.056 192.06 58.0076L191.087 56.7954C191.054 56.7553 191.011 56.7231 190.964 56.701C190.916 56.6789 190.864 56.6674 190.812 56.6675Z" fill="#E0E0E0"/>
<path d="M16.0793 73.4559C15.7966 73.4554 15.5176 73.392 15.2626 73.2703C15.0076 73.1486 14.783 72.9718 14.6052 72.7525L12.3201 69.9058C12.115 69.6476 11.9813 69.3402 11.9324 69.0144C11.8835 68.6885 11.9211 68.3556 12.0414 68.0488L13.3762 64.6488C13.4966 64.3418 13.6955 64.0717 13.9532 63.8653C14.2109 63.659 14.5183 63.5237 14.8448 63.4729L18.4675 62.9169C18.7945 62.8679 19.1287 62.9053 19.4367 63.0252C19.7447 63.1452 20.0159 63.3437 20.2231 63.6008L22.4886 66.4419C22.694 66.7006 22.8277 67.0084 22.8766 67.3348C22.9255 67.6611 22.8878 67.9945 22.7673 68.3017L21.4576 71.7045C21.3374 72.0124 21.1382 72.2833 20.88 72.4902C20.6217 72.6971 20.3135 72.8326 19.9862 72.8832L16.3635 73.4392C16.2695 73.453 16.1744 73.4586 16.0793 73.4559ZM13.8667 68.7299L16.096 71.5099L19.6351 70.9705L20.9337 67.6345L18.7043 64.8545L15.1653 65.3966L13.8667 68.7299Z" fill="#E0E0E0"/>
<path d="M25.3254 48.5388H23.1713C22.9146 48.5396 22.6623 48.4733 22.4393 48.3465C22.2163 48.2196 22.0306 48.0367 21.9006 47.816L20.8221 45.9562C20.6949 45.7329 20.6279 45.4805 20.6279 45.2236C20.6279 44.9668 20.6949 44.7144 20.8221 44.4911L21.9006 42.6313C22.0293 42.4088 22.2146 42.2241 22.4377 42.0957C22.6607 41.9674 22.9138 41.8999 23.1713 41.9001H25.3254C25.5829 41.8999 25.8359 41.9674 26.059 42.0957C26.2821 42.2241 26.4673 42.4088 26.5961 42.6313L27.6745 44.48C27.8018 44.7032 27.8687 44.9557 27.8687 45.2125C27.8687 45.4694 27.8018 45.7218 27.6745 45.945L26.5961 47.816C26.4659 48.0365 26.2801 48.2193 26.0572 48.3461C25.8343 48.4729 25.582 48.5393 25.3254 48.5388ZM23.1713 43.001C23.1094 43.0012 23.0485 43.0174 22.9948 43.0481C22.941 43.0788 22.8962 43.1229 22.8648 43.1762L21.7891 45.036C21.7578 45.0896 21.7413 45.1505 21.7413 45.2125C21.7413 45.2745 21.7578 45.3355 21.7891 45.389L22.8648 47.26C22.8961 47.3136 22.9408 47.3581 22.9945 47.3893C23.0482 47.4205 23.1091 47.4372 23.1713 47.4379H25.3254C25.3885 47.4382 25.4505 47.4219 25.5053 47.3907C25.5601 47.3594 25.6057 47.3144 25.6375 47.26L26.7131 45.4002C26.7445 45.3466 26.761 45.2857 26.761 45.2236C26.761 45.1616 26.7445 45.1007 26.7131 45.0471L25.6375 43.1762C25.606 43.1229 25.5612 43.0788 25.5075 43.0481C25.4537 43.0174 25.3929 43.0012 25.331 43.001H23.1713Z" fill="#EBEBEB"/>
<path d="M62.0816 27.5082L57.8793 24.87L52.7211 16.1853L45.5455 11.804L44.1577 13.3024L44.885 14.281L47.1506 17.3112L56.1432 29.3541L59.8104 31.3669L62.0816 27.5082Z" fill="#EBEBEB"/>
<path d="M56.801 33.7521L55.5971 29.7545L42.3828 14.6924L40.6216 15.7321L43.411 23.6524L51.0827 31.1695L52.8021 35.8621L56.801 33.7521Z" fill="#EBEBEB"/>
<path d="M63.9596 28.2532C63.9596 28.2532 78.8822 36.4236 81.889 39.1814C84.8958 41.9391 91.921 53.4233 91.2076 54.8911C90.4942 56.359 89.9481 56.5591 88.329 55.1358C86.7099 53.7124 81.4766 45.845 80.0721 44.5718C78.6676 43.2985 61.1841 33.082 61.1841 33.082L63.9596 28.2532Z" fill="#E0E0E0"/>
<path d="M53.8414 31.7533C56.4516 31.7533 58.5676 29.6424 58.5676 27.0384C58.5676 24.4344 56.4516 22.3235 53.8414 22.3235C51.2312 22.3235 49.1152 24.4344 49.1152 27.0384C49.1152 29.6424 51.2312 31.7533 53.8414 31.7533Z" fill="#EBEBEB"/>
<path d="M52.668 31.6003C53.0486 31.6717 53.4345 31.7117 53.8217 31.7198C54.2749 31.7214 54.7259 31.6548 55.1593 31.5224C56.2025 31.2178 57.1069 30.5604 57.7171 29.663C58.3273 28.7656 58.6053 27.6842 58.5033 26.6046C58.4559 26.154 58.3394 25.7133 58.1577 25.298C58.0716 25.0848 57.971 24.8777 57.8568 24.6781C57.7345 24.4765 57.5976 24.2842 57.4471 24.1026C56.8253 23.3331 55.9724 22.7829 55.0139 22.5327C54.0554 22.2825 53.0417 22.3456 52.1218 22.7126C51.9038 22.8001 51.6916 22.9013 51.4865 23.0156C51.2921 23.1357 51.1059 23.2685 50.9291 23.4132C50.5764 23.6903 50.269 24.0204 50.0179 24.3917C49.5442 25.0765 49.2623 25.8749 49.2014 26.7047C49.1562 27.3638 49.2507 28.0251 49.4788 28.6454C49.7068 29.2657 50.0633 29.8311 50.5251 30.3048C50.8387 30.6349 51.2004 30.9161 51.5979 31.1388C51.9409 31.319 52.2978 31.4715 52.6652 31.5947C52.6402 31.5979 52.615 31.5979 52.59 31.5947L52.3726 31.5335C52.2542 31.5036 52.1386 31.4636 52.0271 31.414C51.8706 31.3549 51.7188 31.2843 51.5728 31.2027C51.1611 30.9906 50.785 30.7158 50.4582 30.3882C49.9783 29.9107 49.6059 29.3367 49.3656 28.7045C49.1254 28.0722 49.0228 27.3962 49.0648 26.7214C49.1253 25.8679 49.414 25.0461 49.9008 24.3417C50.1594 23.9587 50.4751 23.6174 50.8372 23.3298C51.2082 23.0222 51.627 22.7771 52.0772 22.6042C53.0242 22.2253 54.068 22.1591 55.0555 22.4152C56.0429 22.6714 56.9221 23.2365 57.5642 24.0275C57.7169 24.2161 57.8566 24.4149 57.9822 24.6225C58.1004 24.829 58.2037 25.0436 58.2915 25.2646C58.4686 25.6898 58.5777 26.1401 58.6147 26.599C58.6913 27.3943 58.5646 28.196 58.2464 28.9291C57.9282 29.6622 57.4288 30.3029 56.7951 30.7913C56.3131 31.1667 55.7621 31.4443 55.1732 31.6086C54.7319 31.7375 54.273 31.7966 53.8133 31.7837C53.6454 31.7844 53.4778 31.7723 53.3117 31.7476C53.1887 31.739 53.0666 31.7204 52.9467 31.692L52.7265 31.6392C52.7053 31.629 52.6856 31.6159 52.668 31.6003Z" fill="#E0E0E0"/>
<path d="M53.1724 29.6154C52.6611 29.4834 52.2004 29.2031 51.8488 28.8099C51.4972 28.4167 51.2704 27.9282 51.1972 27.4064C51.1239 26.8846 51.2075 26.3528 51.4373 25.8783C51.6671 25.4039 52.0328 25.0081 52.4882 24.7411C52.9435 24.4741 53.468 24.3478 53.9953 24.3782C54.5226 24.4087 55.029 24.5945 55.4504 24.9122C55.8719 25.2298 56.1893 25.6651 56.3627 26.1628C56.5361 26.6605 56.5576 27.1984 56.4244 27.7083C56.2462 28.3911 55.8036 28.9754 55.1939 29.333C54.5842 29.6905 53.8571 29.7921 53.1724 29.6154Z" fill="#E0E0E0"/>
<path d="M53.1728 29.6154C53.1728 29.5959 53.4041 29.671 53.8221 29.671C54.3223 29.6664 54.8111 29.521 55.2321 29.2515C55.6531 28.982 55.9893 28.5993 56.2019 28.1475C56.3968 27.7253 56.4756 27.2591 56.4304 26.7964C56.3796 26.2865 56.179 25.8029 55.8535 25.4064C55.506 24.9781 55.03 24.6722 54.4953 24.5336C53.9607 24.395 53.3956 24.431 52.883 24.6364C52.6396 24.7268 52.4127 24.8564 52.2114 25.02C52.0133 25.1776 51.8412 25.3652 51.7014 25.576C51.4367 25.958 51.278 26.403 51.2416 26.8659C51.211 27.2701 51.2759 27.6757 51.4311 28.0502C51.6558 28.5998 52.0592 29.058 52.5764 29.3513C52.7696 29.4554 52.9687 29.5482 53.1728 29.6293C52.954 29.5909 52.743 29.5167 52.5486 29.4096C52.005 29.126 51.5767 28.6633 51.3364 28.1003C51.168 27.7115 51.0944 27.2885 51.1218 26.8659C51.1534 26.3792 51.3151 25.9099 51.5899 25.5065C51.7326 25.2848 51.9083 25.0861 52.111 24.9172C52.3232 24.7422 52.5622 24.6023 52.8189 24.5029C53.3595 24.2846 53.9563 24.2457 54.5209 24.3919C55.0854 24.5381 55.5879 24.8616 55.9539 25.3147C56.3006 25.7322 56.5149 26.2432 56.5697 26.7825C56.6133 27.2683 56.5257 27.7569 56.3161 28.1976C56.1335 28.5792 55.8633 28.9125 55.5275 29.1706C55.0419 29.5456 54.4415 29.742 53.8276 29.7266C53.6046 29.7264 53.3833 29.6888 53.1728 29.6154Z" fill="#E0E0E0"/>
<path d="M61.0494 27.3502L59.1183 30.7031C58.5525 31.6856 58.8921 32.9397 59.8769 33.5042L60.0582 33.608C61.043 34.1725 62.3 33.8337 62.8659 32.8512L64.797 29.4983C65.3628 28.5158 65.0232 27.2617 64.0383 26.6972L63.8571 26.5934C62.8723 26.0289 61.6152 26.3677 61.0494 27.3502Z" fill="#EBEBEB"/>
<path d="M59.1168 30.705C59.0014 30.9526 58.9234 31.2158 58.8855 31.4862C58.8567 31.8039 58.8996 32.124 59.0109 32.4231C59.0801 32.6071 59.1738 32.7811 59.2896 32.9401C59.4256 33.1147 59.5894 33.2659 59.7744 33.3877C59.9774 33.5242 60.1964 33.6353 60.4265 33.7185C60.8287 33.8545 61.264 33.8584 61.6686 33.7299C62.0732 33.6013 62.426 33.347 62.6754 33.0041C63.3163 31.9393 63.9935 30.7189 64.7236 29.4651C64.8905 29.1679 64.9782 28.8329 64.9782 28.4921C64.9782 28.1514 64.8905 27.8164 64.7236 27.5191C64.5757 27.2337 64.3594 26.9892 64.0938 26.8075C63.8361 26.6268 63.5455 26.4984 63.2383 26.4294C62.9536 26.3718 62.6598 26.3767 62.3773 26.4439C62.0948 26.5112 61.8304 26.639 61.6025 26.8186C61.165 27.1494 60.9727 27.6526 60.7163 28.0585L59.5682 30.0045L59.2506 30.5299C59.2168 30.5931 59.1766 30.6527 59.1307 30.7078C59.1584 30.6411 59.1901 30.5761 59.2255 30.5132C59.3007 30.3798 59.3982 30.1991 59.5209 29.9767C59.7995 29.4985 60.1646 28.8313 60.6355 28.0112L61.0034 27.3607C61.139 27.1177 61.3196 26.9027 61.5356 26.7268C61.7744 26.5353 62.0522 26.3978 62.3495 26.3239C62.6469 26.2499 62.9568 26.2414 63.2578 26.2987C63.5795 26.3688 63.8843 26.5011 64.1551 26.6879C64.4516 26.8731 64.6961 27.1304 64.8657 27.4357C65.0479 27.7551 65.1438 28.1163 65.1438 28.4838C65.1438 28.8513 65.0479 29.2125 64.8657 29.5319C64.1328 30.7912 63.4724 31.9922 62.8008 33.0791C62.6159 33.326 62.3798 33.5301 62.1085 33.6774C61.8372 33.8247 61.5372 33.9117 61.2291 33.9326C60.9504 33.9486 60.6713 33.9109 60.407 33.8214C60.1695 33.7305 59.944 33.611 59.7354 33.4656C59.5422 33.3358 59.3718 33.1752 59.231 32.9902C59.1134 32.8183 59.0196 32.6313 58.9524 32.4342C58.859 32.1822 58.8173 31.9141 58.8298 31.6457C58.8422 31.3773 58.9086 31.1142 59.0248 30.8718C59.0507 30.8138 59.0815 30.758 59.1168 30.705Z" fill="#E0E0E0"/>
<path d="M53.3564 38.2361C53.3564 38.2361 59.0106 54.2545 61.2511 57.6628C63.4916 61.0711 73.7047 69.8503 75.2708 69.3888C76.8369 68.9274 77.1128 68.4186 75.9814 66.6088C74.85 64.7991 67.9001 58.355 66.8746 56.7621C65.8491 55.1691 58.5675 36.3013 58.5675 36.3013L53.3564 38.2361Z" fill="#E0E0E0"/>
<path d="M56.5681 33.8717L52.9378 35.2272C51.8741 35.6244 51.3345 36.8067 51.7326 37.8679L51.8059 38.0631C52.204 39.1243 53.3891 39.6626 54.4528 39.2654L58.0831 37.9099C59.1469 37.5127 59.6865 36.3305 59.2883 35.2693L59.2151 35.074C58.8169 34.0128 57.6318 33.4745 56.5681 33.8717Z" fill="#EBEBEB"/>
<path d="M56.5696 33.8688C56.6334 33.8355 56.7007 33.8094 56.7702 33.7909C56.9704 33.734 57.178 33.7077 57.3861 33.7131C57.7161 33.724 58.0388 33.8126 58.328 33.9716C58.5075 34.0744 58.6724 34.2006 58.8184 34.3469C58.9777 34.5163 59.1093 34.7096 59.2086 34.9196C59.3186 35.1485 59.3992 35.3905 59.4482 35.6396C59.4971 35.9163 59.4895 36.1999 59.4259 36.4736C59.3538 36.7748 59.2168 37.0568 59.0242 37.2997C58.8317 37.5427 58.5884 37.7408 58.3113 37.8803C57.1297 38.3557 55.8339 38.8199 54.4684 39.337C54.1228 39.4641 53.7502 39.5002 53.3866 39.4417C53.0229 39.3833 52.6805 39.2323 52.3924 39.0034C52.1178 38.7817 51.9033 38.495 51.7682 38.1694C51.6255 37.8697 51.544 37.5446 51.5285 37.2131C51.5182 36.9051 51.5758 36.5986 51.6971 36.3152C51.8184 36.0318 52.0006 35.7784 52.2308 35.5729C52.4398 35.3892 52.6819 35.2468 52.9441 35.1531L53.6464 34.8946L55.7698 34.1273L56.3494 33.9244C56.4162 33.8977 56.4852 33.8772 56.5557 33.8632C56.4943 33.9003 56.4288 33.9301 56.3606 33.9522L55.8033 34.1801L53.6965 34.9919C53.259 35.1781 52.724 35.2866 52.3255 35.6619C52.111 35.8575 51.9416 36.0973 51.829 36.3647C51.7165 36.632 51.6634 36.9205 51.6734 37.2103C51.6936 37.5239 51.774 37.8306 51.9103 38.1138C52.0378 38.4145 52.239 38.6784 52.4955 38.8811C52.7644 39.0945 53.0839 39.2351 53.4232 39.2892C53.7625 39.3432 54.1101 39.309 54.4322 39.1897C55.7893 38.6754 57.1074 38.2056 58.2667 37.7496C58.6448 37.5584 58.9524 37.2525 59.1451 36.8758C59.3379 36.4992 59.406 36.0712 59.3395 35.6535C59.2935 35.4125 59.2176 35.1781 59.1138 34.9557C59.0237 34.7522 58.9014 34.5645 58.7516 34.3997C58.6151 34.2567 58.4594 34.1332 58.289 34.0328C58.0126 33.8717 57.7026 33.7766 57.3833 33.7548C57.1078 33.7511 56.8334 33.7896 56.5696 33.8688Z" fill="#E0E0E0"/>
<path d="M199.18 126.065C199.18 126.104 156.7 126.137 104.311 126.137C51.9214 126.137 9.43311 126.104 9.43311 126.065C9.43311 126.026 51.9047 125.992 104.311 125.992C156.717 125.992 199.18 126.026 199.18 126.065Z" fill="#263238"/>
<path d="M24.2441 94.2614C24.3194 94.0279 33.0026 65.7108 33.0026 65.7108L32.7853 62.1941L35.0564 58.4634L37.8765 59.3947L37.492 63.5647L35.4856 66.606L26.7521 95.076L24.2441 94.2614Z" fill="#E0E0E0"/>
<path d="M24.2441 94.2613L24.4113 94.3086L24.8934 94.4587L26.7521 95.0397L26.7215 95.0564C28.1343 90.4388 31.4003 79.7525 35.4242 66.5948L37.4279 63.5562V63.5868C37.5505 62.2552 37.6814 60.8402 37.8124 59.4168L37.8626 59.4919L37.6285 59.4168L35.0425 58.5634L35.1261 58.5328L32.8549 62.2635V62.2218C32.9274 63.4209 32.9989 64.5932 33.0695 65.7385V65.7636C30.5309 73.9896 28.3322 81.1147 26.7689 86.1854C25.983 88.7236 25.3532 90.7446 24.9213 92.1374C24.7067 92.8324 24.5367 93.369 24.4225 93.7359L24.2915 94.1501L24.2441 94.2919C24.2536 94.2459 24.2657 94.2004 24.2804 94.1557C24.3082 94.0584 24.3472 93.9222 24.4002 93.747C24.5117 93.3801 24.6789 92.8463 24.8795 92.1569C25.3003 90.7669 25.9134 88.743 26.6825 86.2077C28.2374 81.1203 30.4166 73.9757 32.9358 65.7219V65.7469C32.8633 64.6015 32.7899 63.4293 32.7156 62.2302V62.2079V62.1885L34.9867 58.4577L35.0146 58.4077L35.0703 58.4271L37.6592 59.2778L37.8904 59.3557L37.9462 59.3723V59.4307C37.8152 60.8624 37.6842 62.2774 37.5588 63.6007V63.6202V63.6341L35.5552 66.6754V66.6559C31.4895 79.7859 28.1956 90.4583 26.7689 95.0759V95.1009H26.7438L24.8823 94.4865L24.4113 94.3281L24.2441 94.2613Z" fill="#263238"/>
<path d="M22.1515 95.632L18.2501 100.892L12.7966 120.63C12.7966 120.63 12.0136 124.655 16.4694 125.798C21.4854 127.082 22.628 123.257 22.628 123.257L27.9226 103.983L27.8669 97.3L29.1739 95.8294C29.2329 95.7608 29.2744 95.679 29.2946 95.5908C29.3148 95.5027 29.3132 95.411 29.2899 95.3236C29.2665 95.2363 29.2222 95.1559 29.1607 95.0895C29.0992 95.0231 29.0224 94.9727 28.937 94.9426L22.6726 92.8798C22.5855 92.8527 22.4931 92.8472 22.4034 92.8641C22.3138 92.8809 22.2296 92.9194 22.1584 92.9762C22.0871 93.033 22.0309 93.1064 21.9947 93.1899C21.9586 93.2734 21.9435 93.3646 21.9508 93.4553L22.1515 95.632Z" fill="#ABABAB"/>
<path d="M27.9002 97.5306C27.8863 97.5695 26.5738 97.1887 24.9686 96.6799C23.3635 96.1712 22.0677 95.7264 22.0817 95.6875C22.0956 95.6486 23.4053 96.0322 25.0132 96.5409C26.6211 97.0497 27.9114 97.4917 27.9002 97.5306Z" fill="#263238"/>
<path d="M27.9338 103.986C27.8017 103.978 27.6709 103.955 27.5437 103.919C27.2929 103.866 26.9362 103.78 26.4931 103.669C25.6069 103.449 24.3919 103.113 23.0683 102.69C21.7446 102.268 20.5603 101.84 19.7048 101.509C19.2812 101.342 18.9384 101.203 18.7044 101.103C18.5801 101.058 18.4606 101.002 18.3477 100.933C18.4775 100.96 18.6044 100.999 18.7266 101.05L19.741 101.412C20.5993 101.717 21.7864 102.132 23.1101 102.551C24.4337 102.971 25.6432 103.324 26.5182 103.572L27.5576 103.864C27.6865 103.893 27.8124 103.934 27.9338 103.986Z" fill="#263238"/>
<g opacity="0.3">
<path d="M20.5998 102.984L20.4634 102.945C19.9758 102.803 19.4653 103.082 19.3231 103.568L14.494 120.086C14.3518 120.572 14.6318 121.081 15.1193 121.223L15.2558 121.263C15.7433 121.405 16.2539 121.125 16.3961 120.639L21.2251 104.122C21.3674 103.635 21.0874 103.126 20.5998 102.984Z" fill="black"/>
</g>
<g opacity="0.3">
<path d="M23.3953 103.889L23.2589 103.849C22.7713 103.707 22.2608 103.986 22.1186 104.473L17.2895 120.99C17.1473 121.476 17.4273 121.986 17.9148 122.128L18.0513 122.167C18.5388 122.309 19.0494 122.03 19.1916 121.543L24.0207 105.026C24.1629 104.54 23.8829 104.031 23.3953 103.889Z" fill="black"/>
</g>
<g opacity="0.3">
<path d="M25.9171 104.721L25.7808 104.681C25.2938 104.537 24.7822 104.814 24.638 105.3L19.7426 121.798C19.5984 122.283 19.8763 122.794 20.3633 122.938L20.4996 122.978C20.9866 123.122 21.4982 122.844 21.6424 122.359L26.5378 105.861C26.682 105.375 26.4041 104.865 25.9171 104.721Z" fill="black"/>
</g>
<path d="M35.4663 66.6088C35.0402 66.5375 34.6233 66.4191 34.2235 66.2557C33.8083 66.1392 33.408 65.975 33.0308 65.7664C33.4556 65.8395 33.8713 65.9579 34.2708 66.1195C34.6868 66.2364 35.0879 66.4006 35.4663 66.6088Z" fill="#263238"/>
<path d="M37.8823 59.3946C37.8614 59.527 37.8288 59.6573 37.7848 59.7838C37.7039 60.0618 37.598 60.4121 37.4671 60.8458L36.3524 64.4598L36.3301 64.5293L36.2604 64.5071L34.9758 64.0595L33.6549 63.598L33.5908 63.5758L33.6103 63.5118C34.0116 62.0829 34.3655 60.8291 34.6275 59.8978C34.7556 59.4669 34.8588 59.1111 34.9396 58.8442C34.9723 58.715 35.0152 58.5886 35.0678 58.4661C35.0525 58.5989 35.0255 58.7301 34.9869 58.8581L34.7083 59.9228C34.4603 60.8486 34.1259 62.1051 33.7413 63.5368L33.6967 63.4507L35.0204 63.9121L36.3022 64.3597L36.2103 64.407L37.3807 60.818C37.5256 60.3871 37.6594 60.0368 37.7374 59.7699C37.775 59.641 37.8235 59.5154 37.8823 59.3946Z" fill="#263238"/>
<path d="M120.078 31.1138C119.853 31.1142 119.63 31.0766 119.417 31.0026L116.004 29.8239C115.669 29.7071 115.37 29.5047 115.138 29.2369C114.906 28.9691 114.748 28.6453 114.68 28.2977L113.997 24.7588C113.93 24.4108 113.956 24.0513 114.073 23.7166C114.189 23.3818 114.392 23.0835 114.66 22.8517L117.391 20.4942C117.66 20.2629 117.985 20.1059 118.334 20.0391C118.683 19.9722 119.043 19.9979 119.378 20.1134L122.789 21.2921C123.125 21.4086 123.424 21.6108 123.657 21.8786C123.889 22.1464 124.048 22.4704 124.116 22.8183L124.798 26.3573C124.864 26.7052 124.837 27.0643 124.721 27.3988C124.605 27.7333 124.403 28.0316 124.135 28.2643L121.404 30.6218C121.036 30.9393 120.565 31.114 120.078 31.1138ZM116.845 27.7612L120.036 28.8732L122.586 26.6714L121.948 23.3521L118.76 22.2401L116.204 24.4641L116.845 27.7612Z" fill="#E0E0E0"/>
<path d="M116.845 27.7611C116.822 27.6892 116.803 27.6158 116.789 27.5415L116.65 26.8882C116.53 26.3016 116.371 25.476 116.157 24.4668C116.154 24.4573 116.155 24.4475 116.158 24.4382C116.161 24.4289 116.166 24.4206 116.173 24.414L118.715 22.19C118.725 22.1847 118.737 22.1819 118.748 22.1819C118.76 22.1819 118.771 22.1847 118.782 22.19L121.97 23.302L122.02 23.3576V23.4049V23.4605L122.042 23.5689L122.084 23.7857C122.112 23.9275 122.137 24.0637 122.165 24.2139C122.22 24.4919 122.273 24.7699 122.326 25.0479C122.432 25.6039 122.535 26.1376 122.633 26.6519C122.635 26.6636 122.634 26.6757 122.63 26.6869C122.626 26.6982 122.62 26.7082 122.61 26.7159L120.069 28.9121C120.061 28.9167 120.052 28.9191 120.043 28.9191C120.033 28.9191 120.024 28.9167 120.016 28.9121L117.684 28.0781L117.057 27.8445C116.984 27.821 116.913 27.7922 116.845 27.7584C116.924 27.775 117.003 27.7973 117.079 27.8251L117.723 28.0308L120.052 28.8092H119.999L122.541 26.5852L122.519 26.6519C122.418 26.1348 122.312 25.6011 122.206 25.0479C122.153 24.7699 122.098 24.4919 122.042 24.2139C122.014 24.0721 121.989 23.9359 121.961 23.7857L121.919 23.5689L121.897 23.4605V23.4049V23.3771V23.3576C121.897 23.3576 121.986 23.4605 121.942 23.4104L118.757 22.2984H118.823L116.262 24.4919L116.282 24.439C116.463 25.4454 116.614 26.2655 116.719 26.8521C116.767 27.1301 116.806 27.3497 116.834 27.5165C116.845 27.5975 116.849 27.6794 116.845 27.7611Z" fill="#263238"/>
<path d="M120.078 31.1137C120.078 31.1137 120.197 31.1137 120.423 31.0693C120.749 31.0075 121.054 30.8672 121.312 30.6606L124.085 28.2392C124.388 27.9779 124.605 27.6309 124.706 27.244C124.761 27.0402 124.783 26.8292 124.773 26.6185C124.748 26.3988 124.711 26.1807 124.662 25.9652C124.486 25.0672 124.299 24.1109 124.104 23.1046C124.07 22.8528 124.001 22.6069 123.901 22.3734C123.793 22.1379 123.638 21.9263 123.447 21.7511C123.255 21.5759 123.031 21.4406 122.786 21.3532L122 21.0752L120.387 20.5192L119.551 20.2412C119.286 20.13 119.002 20.0705 118.715 20.066C118.426 20.0657 118.141 20.1283 117.879 20.2495C117.625 20.3769 117.391 20.5429 117.188 20.7416L115.898 21.8536L114.652 22.9294C114.273 23.2761 114.045 23.757 114.017 24.2694C114.013 24.5175 114.041 24.7651 114.1 25.0061C114.148 25.2535 114.192 25.4954 114.24 25.7344C114.329 26.2126 114.418 26.6741 114.502 27.1244C114.585 27.5748 114.666 28.0085 114.752 28.4144C114.856 28.7992 115.074 29.144 115.377 29.404C115.517 29.5239 115.674 29.624 115.842 29.7015C116.006 29.7738 116.182 29.8266 116.344 29.8878L117.277 30.2158L118.771 30.744C119.08 30.8684 119.396 30.9733 119.718 31.0581C119.941 31.0998 120.064 31.0971 120.064 31.1026C119.947 31.1167 119.829 31.1167 119.713 31.1026C119.387 31.0278 119.066 30.9302 118.754 30.8107L117.266 30.302L116.33 29.9851C116.162 29.9267 115.992 29.8766 115.817 29.8016C115.639 29.7216 115.473 29.6177 115.324 29.493C115.002 29.222 114.77 28.8606 114.658 28.4561C114.563 28.0335 114.488 27.6054 114.398 27.1578C114.309 26.7102 114.22 26.246 114.12 25.7678C114.071 25.5324 114.024 25.2906 113.978 25.0422C113.915 24.7914 113.885 24.5335 113.888 24.2749C113.917 23.726 114.16 23.2102 114.566 22.8377L115.808 21.759L117.099 20.647C117.21 20.5525 117.313 20.458 117.433 20.369C117.555 20.2785 117.686 20.2003 117.823 20.1355C118.101 20.007 118.403 19.9405 118.709 19.9409C119.013 19.9457 119.313 20.0079 119.593 20.1244L120.429 20.4024L122.042 20.9584L122.828 21.2364C123.093 21.3308 123.337 21.4774 123.544 21.6673C123.748 21.8535 123.912 22.0785 124.026 22.3289C124.132 22.5729 124.203 22.8302 124.238 23.0934C124.424 24.1035 124.605 25.058 124.782 25.9568C124.832 26.1777 124.868 26.4014 124.89 26.6268C124.906 26.9468 124.848 27.2663 124.721 27.5603C124.593 27.8544 124.399 28.1152 124.155 28.3226L121.351 30.7106C121.081 30.9163 120.764 31.0519 120.429 31.1054C120.313 31.1225 120.195 31.1253 120.078 31.1137Z" fill="#263238"/>
<path d="M96.3268 25.3258C96.1058 25.3253 95.8878 25.275 95.689 25.1787C95.4902 25.0824 95.3158 24.9427 95.1787 24.7698L94.2061 23.5605C94.0456 23.3595 93.9405 23.12 93.9014 22.8659C93.8623 22.6118 93.8905 22.352 93.9832 22.1121L94.5405 20.6665C94.6343 20.4273 94.7895 20.2168 94.9905 20.0563C95.1915 19.8958 95.4313 19.7908 95.6859 19.7519L97.2213 19.5156C97.476 19.4771 97.7363 19.5059 97.9764 19.5991C98.2165 19.6922 98.4279 19.8465 98.5896 20.0466L99.5621 21.2587C99.7227 21.4591 99.8278 21.6981 99.8669 21.9518C99.906 22.2054 99.8778 22.4649 99.785 22.7043L99.2277 24.1526C99.1353 24.392 98.9818 24.6032 98.7824 24.7651C98.5829 24.927 98.3445 25.034 98.0908 25.0756L96.5525 25.3091C96.4778 25.3204 96.4023 25.3259 96.3268 25.3258ZM97.4415 20.6193H97.3885L95.8614 20.85C95.7998 20.8591 95.7416 20.8842 95.6927 20.9227C95.6438 20.9613 95.6059 21.0119 95.5828 21.0696L95.0254 22.518C95.0033 22.5755 94.9966 22.6378 95.0059 22.6987C95.0152 22.7596 95.0401 22.8171 95.0784 22.8655L96.0509 24.0748C96.0899 24.1227 96.1407 24.1597 96.1984 24.1821C96.256 24.2046 96.3185 24.2116 96.3797 24.2027L97.918 23.9664C97.9797 23.9575 98.038 23.9325 98.0869 23.894C98.1359 23.8554 98.1737 23.8046 98.1966 23.7468L98.754 22.3012C98.7766 22.2437 98.7837 22.1813 98.7744 22.1203C98.7651 22.0593 98.7398 22.0018 98.701 21.9537L97.7285 20.7444C97.6945 20.7046 97.6522 20.6727 97.6045 20.6511C97.5568 20.6295 97.505 20.6186 97.4526 20.6193H97.4415Z" fill="#E0E0E0"/>
<path d="M97.4527 20.6192C97.4917 20.6071 97.5335 20.6071 97.5725 20.6192C97.6208 20.6323 97.6656 20.6561 97.7035 20.6887C97.7507 20.7354 97.7954 20.7846 97.8372 20.8361L98.6287 21.7841L98.7569 21.9425C98.8052 22.0079 98.8324 22.0865 98.8349 22.1677C98.8332 22.2477 98.8142 22.3264 98.7791 22.3984C98.7541 22.4679 98.7262 22.5374 98.7011 22.6097C98.5897 22.8877 98.4726 23.2019 98.35 23.5243C98.3193 23.605 98.2887 23.6856 98.2552 23.769C98.2187 23.8694 98.1449 23.952 98.049 23.9997C97.9593 24.0331 97.8657 24.0546 97.7704 24.0637L97.4917 24.1081C97.1155 24.1637 96.7477 24.2277 96.3297 24.2805C96.2697 24.2807 96.2103 24.2681 96.1556 24.2437C96.1008 24.2192 96.0519 24.1835 96.012 24.1387L95.8281 23.908L95.4686 23.4632L95.1258 23.0295L95.0394 22.9239C95.0064 22.8849 94.98 22.8407 94.9614 22.7932C94.9237 22.6947 94.9237 22.5859 94.9614 22.4874L95.3237 21.5783L95.4881 21.1669C95.5121 21.0968 95.5438 21.0297 95.5828 20.9667C95.6275 20.9041 95.6894 20.8558 95.7612 20.8277C96.2962 20.7304 96.7031 20.6915 96.9957 20.6526C97.1452 20.6234 97.2975 20.6103 97.4499 20.6137C97.413 20.6273 97.3747 20.6367 97.3357 20.6415L97.0068 20.7082C96.7282 20.7638 96.2879 20.825 95.8002 20.9223C95.7479 20.9452 95.7027 20.9817 95.6692 21.0279C95.638 21.0858 95.6119 21.1462 95.5912 21.2086L95.4351 21.6228L95.084 22.5374C95.0588 22.6047 95.0588 22.6787 95.084 22.7459C95.1227 22.8175 95.1705 22.8839 95.2261 22.9433L95.5828 23.3798L95.9423 23.8246L96.1235 24.0498C96.1498 24.0789 96.1821 24.1022 96.2181 24.118C96.2541 24.1338 96.2931 24.1418 96.3325 24.1415L97.4722 23.9719L97.7509 23.9302C97.8354 23.925 97.9189 23.9081 97.9989 23.8802C98.0649 23.8489 98.1159 23.793 98.141 23.7245C98.1716 23.6411 98.2051 23.5605 98.2357 23.4799C98.3639 23.1629 98.4838 22.8571 98.598 22.5708C98.6296 22.5022 98.6575 22.4327 98.6816 22.3623C98.7119 22.3045 98.7299 22.2411 98.7346 22.176C98.7318 22.1168 98.7136 22.0593 98.6816 22.0092L98.559 21.8536L97.8038 20.8778C97.7705 20.8096 97.7212 20.7505 97.6601 20.7055C97.5989 20.6605 97.5278 20.6309 97.4527 20.6192Z" fill="#263238"/>
<path d="M96.3268 25.3259C96.3873 25.3122 96.4488 25.3029 96.5107 25.2981L97.0429 25.2063L97.8789 25.0646C98.0526 25.0457 98.223 25.0045 98.3861 24.9422C98.5647 24.8687 98.7261 24.7589 98.8598 24.6198C99.0133 24.4675 99.1313 24.2833 99.2054 24.0804C99.2862 23.8692 99.3726 23.6468 99.459 23.416C99.6122 22.9518 99.9244 22.4764 99.8101 21.9454C99.7607 21.6761 99.6372 21.4259 99.4534 21.2226L98.8961 20.5332L98.6174 20.1773C98.5286 20.0577 98.4236 19.9511 98.3053 19.8604C98.0641 19.68 97.7708 19.5824 97.4693 19.5824C97.314 19.5881 97.1593 19.6058 97.0067 19.6352L96.5413 19.7047L95.6357 19.8465C95.3577 19.9067 95.1049 20.0502 94.9111 20.2579C94.8177 20.3575 94.7389 20.4699 94.6771 20.5915C94.6185 20.7111 94.5712 20.8501 94.521 20.9752L94.2228 21.7286C94.119 21.9557 94.0368 22.1921 93.9776 22.4347C93.9447 22.6537 93.9619 22.8773 94.028 23.0886C94.0941 23.3 94.2074 23.4937 94.3594 23.6551L95.0588 24.5447C95.1647 24.6726 95.2511 24.8005 95.3514 24.8978C95.4422 24.9868 95.5443 25.0634 95.6552 25.1257C95.8685 25.2386 96.1028 25.3067 96.3435 25.3259C96.3435 25.3259 96.3268 25.3259 96.2933 25.3259C96.2599 25.3259 96.2153 25.3259 96.154 25.3259C95.9711 25.3094 95.7931 25.2574 95.6301 25.173C95.5125 25.1106 95.4029 25.0341 95.3041 24.945C95.1948 24.8328 95.0916 24.715 94.9947 24.592L94.2786 23.7163C94.1147 23.5452 93.9919 23.3391 93.9195 23.1137C93.847 22.8884 93.8269 22.6495 93.8606 22.4152C93.9165 22.1622 93.9977 21.9154 94.103 21.6785L94.3956 20.9251C94.4485 20.7945 94.4904 20.6666 94.5544 20.5304C94.621 20.3958 94.7064 20.2713 94.808 20.1606C95.0162 19.9371 95.2856 19.7796 95.5827 19.7075C95.8893 19.6547 96.1874 19.613 96.4968 19.5629L96.9621 19.4934C97.1219 19.4615 97.2841 19.4429 97.447 19.4378C97.7791 19.4348 98.103 19.5403 98.3694 19.7381C98.4974 19.8356 98.6109 19.9507 98.7066 20.08L98.9852 20.4359C99.1747 20.6694 99.3587 20.9029 99.5426 21.1281C99.7414 21.3494 99.8737 21.622 99.9243 21.9148C99.9737 22.1957 99.9428 22.4847 99.8352 22.7488C99.7404 22.9907 99.6457 23.227 99.5565 23.4577C99.4673 23.6885 99.3782 23.9053 99.2946 24.1194C99.2165 24.3285 99.0938 24.5181 98.9351 24.6754C98.6524 24.9465 98.2816 25.1073 97.8901 25.1285L97.0541 25.2453C96.8228 25.2758 96.6417 25.3009 96.519 25.3092C96.4558 25.3224 96.3913 25.328 96.3268 25.3259Z" fill="#263238"/>
<path d="M123.475 21.698C123.279 22.0345 123.037 22.3423 122.756 22.6126C122.509 22.9169 122.212 23.1773 121.878 23.3827C122.113 23.0753 122.371 22.7862 122.65 22.5181C122.893 22.2145 123.17 21.9394 123.475 21.698Z" fill="#263238"/>
<path d="M118.25 20.0994C118.432 20.4263 118.557 20.7816 118.62 21.1502C118.733 21.5096 118.783 21.8858 118.768 22.2622C118.643 21.9135 118.55 21.5544 118.489 21.1891C118.376 20.834 118.296 20.4692 118.25 20.0994Z" fill="#263238"/>
<path d="M116.171 24.3999C115.806 24.3283 115.448 24.226 115.1 24.0941C114.739 24.0056 114.385 23.8884 114.042 23.7439C114.791 23.8042 115.518 24.0282 116.171 24.3999Z" fill="#263238"/>
<path d="M115.577 29.2235C115.723 28.9328 115.911 28.6649 116.134 28.4284C116.326 28.1636 116.555 27.9276 116.814 27.7278C116.67 28.0196 116.482 28.2878 116.257 28.5229C116.065 28.7877 115.836 29.0237 115.577 29.2235Z" fill="#263238"/>
<path d="M120.27 30.7439C120.157 30.4578 120.092 30.1556 120.075 29.8488C120.008 29.5478 119.99 29.238 120.022 28.9314C120.133 29.2188 120.199 29.5217 120.217 29.8293C120.282 30.1295 120.3 30.4382 120.27 30.7439Z" fill="#263238"/>
<path d="M124.235 27.1829C123.95 27.1497 123.672 27.0689 123.413 26.9438C123.136 26.8648 122.875 26.7388 122.641 26.5713C123.203 26.6851 123.742 26.8918 124.235 27.1829Z" fill="#263238"/>
<path d="M179.556 48.5C181.443 46.2315 183.329 43.9408 184.801 41.3832C186.272 38.8256 187.309 35.9678 187.384 33.021C187.384 32.5734 187.203 29.4737 186.771 29.3486C186.464 29.2596 186.252 31.9979 186.002 32.1953C183.594 34.0746 182.031 36.8629 181.131 39.7764C180.283 42.6171 179.755 45.5429 179.556 48.5Z" fill="#263238"/>
<path d="M154.981 65.7415C155.733 63.7955 159.439 54.0655 159.42 54.0655C159.4 54.0655 153.036 50.7518 155.24 44.0019C156.299 40.741 159.027 34.2052 161.563 28.3172C162.879 25.2666 165.298 22.8221 168.339 21.4699C171.38 20.1177 174.819 19.957 177.973 21.0197L178.623 21.2393C185.495 24.0193 186.983 31.378 184.009 38.1528L170.355 69.7058L158.389 66.0168L154.981 65.7415Z" fill="#FFBF9D"/>
<path d="M159.422 54.071C159.422 54.071 163.583 55.739 169.067 54.438C169.067 54.438 165.272 58.7164 158.756 55.8475L159.422 54.071Z" fill="#FF9A6C"/>
<path d="M161.552 34.814C161.465 35.0634 161.479 35.3367 161.59 35.576C161.702 35.8153 161.903 36.0017 162.151 36.0956C162.27 36.1463 162.398 36.1728 162.527 36.1735C162.657 36.1742 162.785 36.1491 162.905 36.0997C163.025 36.0502 163.133 35.9774 163.224 35.8855C163.315 35.7936 163.387 35.6845 163.435 35.5646C163.523 35.3152 163.509 35.0415 163.397 34.8021C163.285 34.5626 163.084 34.3763 162.836 34.283C162.717 34.2318 162.589 34.205 162.459 34.2041C162.33 34.2032 162.201 34.2283 162.081 34.2778C161.962 34.3273 161.853 34.4002 161.762 34.4923C161.671 34.5844 161.599 34.6938 161.552 34.814Z" fill="#263238"/>
<path d="M162.048 31.5974C162.126 31.7642 163.037 31.4695 164.071 31.8226C165.105 32.1756 165.69 32.9346 165.843 32.8567C165.918 32.8206 165.874 32.5537 165.623 32.2006C165.281 31.7402 164.804 31.3972 164.258 31.2193C163.717 31.0331 163.131 31.0253 162.586 31.1971C162.184 31.3333 162.009 31.5223 162.048 31.5974Z" fill="#263238"/>
<path d="M170.633 38.4585C170.546 38.7075 170.559 38.9808 170.671 39.2198C170.783 39.4588 170.985 39.6446 171.232 39.7373C171.351 39.7885 171.48 39.8153 171.609 39.8162C171.739 39.8171 171.867 39.792 171.987 39.7425C172.107 39.693 172.215 39.6201 172.306 39.528C172.397 39.4359 172.469 39.3265 172.517 39.2063C172.604 38.9569 172.59 38.6836 172.478 38.4443C172.366 38.205 172.165 38.0186 171.918 37.9248C171.799 37.8741 171.67 37.8477 171.541 37.8472C171.411 37.8467 171.283 37.872 171.163 37.9217C171.043 37.9715 170.935 38.0446 170.844 38.1368C170.753 38.2289 170.681 38.3383 170.633 38.4585Z" fill="#263238"/>
<path d="M172.049 35.4311C172.124 35.5979 173.038 35.306 174.072 35.6563C175.106 36.0066 175.688 36.7683 175.845 36.6932C175.917 36.6543 175.875 36.3874 175.624 36.0372C175.281 35.576 174.803 35.2322 174.256 35.053C173.716 34.8662 173.129 34.8584 172.584 35.0308C172.194 35.167 172.01 35.3561 172.049 35.4311Z" fill="#263238"/>
<path d="M165.648 42.1171C165.673 42.0615 165.066 41.7335 164.068 41.2498C163.814 41.133 163.58 40.9968 163.597 40.7994C163.614 40.602 163.806 40.3407 164.037 40.0794L165.5 38.3336C167.554 35.8316 169.137 33.7549 169.034 33.6715C168.931 33.5881 167.186 35.5452 165.132 38.0389C164.634 38.656 164.154 39.2426 163.7 39.807C163.499 40.085 163.212 40.363 163.212 40.7966C163.22 40.9022 163.251 41.0048 163.303 41.0968C163.356 41.1887 163.429 41.2676 163.516 41.3276C163.65 41.416 163.794 41.4879 163.945 41.5417C164.971 41.9503 165.623 42.1755 165.648 42.1171Z" fill="#263238"/>
<path d="M168.454 43.8574C168.287 43.7935 167.897 44.9138 166.676 45.3836C165.456 45.8534 164.288 45.3308 164.227 45.4837C164.188 45.5476 164.422 45.7895 164.921 45.9758C165.577 46.2054 166.292 46.1985 166.944 45.9563C167.568 45.7212 168.076 45.2538 168.362 44.6525C168.563 44.2021 168.532 43.8769 168.454 43.8574Z" fill="#263238"/>
<path d="M173.523 31.2612C173.523 31.5753 174.61 31.7921 175.775 32.3453C176.939 32.8985 177.812 33.563 178.057 33.3657C178.168 33.2684 178.088 32.9459 177.778 32.5317C177.363 32.0196 176.836 31.6088 176.238 31.3308C175.64 31.0528 174.985 30.9149 174.326 30.9275C173.824 30.9664 173.526 31.1139 173.523 31.2612Z" fill="#263238"/>
<path d="M163.639 28.3087C163.742 28.6061 164.536 28.5867 165.397 28.8647C166.258 29.1427 166.93 29.5569 167.178 29.3678C167.292 29.2733 167.259 29.0009 167.016 28.6701C166.68 28.2606 166.229 27.9598 165.721 27.8059C165.213 27.652 164.671 27.6519 164.163 27.8055C163.778 27.9584 163.597 28.1669 163.639 28.3087Z" fill="#263238"/>
<path d="M181.763 42.9509C181.897 42.9509 186.855 43.1428 185.155 47.6769C183.455 52.2111 179.228 49.5812 179.269 49.4478C179.311 49.3144 181.763 42.9509 181.763 42.9509Z" fill="#FFBF9D"/>
<path d="M181.306 48.2552C181.331 48.2552 181.365 48.3413 181.476 48.4525C181.634 48.6042 181.845 48.6881 182.064 48.6861C182.621 48.6861 183.301 48.0772 183.63 47.2655C183.789 46.8799 183.858 46.4638 183.834 46.0478C183.845 45.8891 183.818 45.73 183.753 45.5845C183.688 45.439 183.589 45.3117 183.463 45.2138C183.38 45.1532 183.279 45.1241 183.177 45.1318C183.074 45.1394 182.978 45.1833 182.906 45.2555C182.797 45.3612 182.791 45.4612 182.766 45.4612C182.741 45.4612 182.697 45.3473 182.803 45.1832C182.869 45.0817 182.967 45.0046 183.081 44.9636C183.242 44.9162 183.415 44.9331 183.563 45.0109C183.735 45.1189 183.876 45.2688 183.974 45.4463C184.071 45.6238 184.122 45.8232 184.121 46.0256C184.166 46.4919 184.097 46.9622 183.92 47.3961C183.547 48.2996 182.758 48.9835 182.028 48.9279C181.892 48.9171 181.76 48.8763 181.642 48.8085C181.524 48.7408 181.423 48.6476 181.345 48.5359C181.273 48.3719 181.287 48.2579 181.306 48.2552Z" fill="#FF9A6C"/>
<path d="M167.379 21.9425C166.799 21.2587 169.917 19.7185 172.038 19.6018C175.243 19.4127 179.704 20.2467 181.945 21.9231C184.648 23.9386 186.584 26.4072 187.047 29.7404C187.51 33.0737 186.849 36.4986 185.553 39.6067C185.158 40.5546 184.673 41.5137 183.848 42.1281C182.831 42.8871 181.371 43.0511 180.891 44.455C180.812 44.7114 180.682 44.9496 180.51 45.1557C180.338 45.3618 180.127 45.5319 179.888 45.6559C178.718 46.2119 178.021 45.0026 177.873 43.9879C177.558 41.8307 178.261 39.6706 178.955 37.5939C179.448 36.1261 179.958 34.6277 180.905 33.3961C181.418 32.7262 182.048 32.1507 182.524 31.4501C183.001 30.7496 183.31 29.8739 183.082 29.0649C183.023 28.8865 182.948 28.7143 182.856 28.5506C182.435 27.7573 181.81 27.09 181.045 26.6172C180.28 26.1443 179.403 25.8828 178.503 25.8596C175.597 25.7845 170.7 25.4592 169.906 24.1582C168.744 22.2845 168.663 21.3226 168.663 21.3226L167.379 21.9425Z" fill="#263238"/>
<path d="M182.527 19.1487C182.819 19.296 189.666 23.516 189.621 29.671C189.577 35.8259 188.448 37.3326 188.448 37.3326C188.678 37.6148 188.866 37.9284 189.006 38.2639C189.19 38.731 188.139 40.3156 187.239 39.7874C181.091 34.0967 172.62 30.8274 162.956 27.8334L155.666 25.2285C153.531 24.7643 152.999 23.972 154.041 23.7579C154.841 23.5911 161.462 23.2575 161.462 23.2575L162.892 22.8183L167.35 19.6741C167.35 19.6741 167.178 18.9624 168.083 18.7317C168.989 18.5009 176.769 16.2297 182.527 19.1487Z" fill="#ABABAB"/>
<path d="M162.886 22.8293C162.886 22.8293 162.984 22.8682 163.165 22.9294L164.001 23.1907C164.72 23.4048 165.743 23.7662 167.002 24.2276C170.261 25.4789 173.404 27.0119 176.396 28.8091C179.386 30.6138 182.27 32.5871 185.035 34.7194C186.105 35.5283 186.955 36.2011 187.543 36.6654L188.225 37.1963C188.381 37.3159 188.468 37.3743 188.468 37.3743C188.468 37.3743 188.393 37.302 188.239 37.1741L187.573 36.6181C186.991 36.1455 186.147 35.4616 185.085 34.6443C182.33 32.4869 179.445 30.5001 176.446 28.6951C173.445 26.8913 170.285 25.3661 167.005 24.1387C165.655 23.6337 164.28 23.1967 162.886 22.8293Z" fill="#263238"/>
<g opacity="0.3">
<path d="M188.195 24.742C188.195 24.742 180.637 20.7054 176.463 21.1947L176.953 21.128L173.052 21.4505C172.392 21.5061 171.636 21.5255 171.185 21.0446C171.185 21.0446 173.551 20.0438 177.288 20.0633C181.025 20.0827 186.509 21.406 188.195 24.742Z" fill="black"/>
</g>
<path d="M188.295 24.8088C188.127 24.5571 187.941 24.3183 187.738 24.0943C187.193 23.4742 186.578 22.92 185.904 22.443C184.907 21.73 183.809 21.168 182.647 20.775C181.23 20.2546 179.718 20.045 178.213 20.1606C177.44 20.2383 176.673 20.3645 175.917 20.5387C175.187 20.7027 174.476 20.8167 173.805 21.0113C173.189 21.2151 172.557 21.3657 171.915 21.4616C171.354 21.517 170.787 21.4418 170.26 21.242C168.284 20.5943 167.217 19.7742 167.351 19.6824C167.358 19.7623 167.395 19.8366 167.454 19.8909C167.614 20.0474 167.794 20.1829 167.989 20.294C168.698 20.7175 169.451 21.0633 170.235 21.3254C170.774 21.5333 171.353 21.6151 171.929 21.5645C172.578 21.4741 173.217 21.328 173.841 21.128C174.498 20.9473 175.217 20.825 175.947 20.661C176.699 20.494 177.461 20.3714 178.227 20.294C179.714 20.1824 181.208 20.3861 182.61 20.8917C183.764 21.2767 184.856 21.8244 185.854 22.518C186.527 22.9854 187.147 23.5252 187.702 24.1277C187.899 24.3417 188.047 24.5141 188.142 24.6336C188.237 24.7532 188.295 24.8088 188.295 24.8088Z" fill="#263238"/>
<g opacity="0.3">
<path d="M189.533 32.2147C188.1 31.7115 187.142 30.9692 185.824 30.1686C184.43 29.3179 183.006 28.5395 181.644 27.6221C180.61 26.9271 179.359 26.1932 178.899 25.1201C178.746 25.3804 178.664 25.6757 178.659 25.9772C178.655 26.2788 178.729 26.5763 178.874 26.8409C179.166 27.3969 180.406 28.3894 180.936 28.748C183.948 30.7913 186.041 32.1869 189.407 33.6075C189.479 33.1474 189.52 32.683 189.53 32.2175" fill="black"/>
</g>
<path d="M189.605 28.9898C190.379 29.6932 190.845 30.1491 190.605 30.9358C190.407 31.5864 190.006 32.3258 189.332 32.223C189.132 32.1768 188.943 32.0938 188.774 31.9783L179.545 26.5879C179.211 26.4419 178.94 26.1816 178.781 25.854C178.597 25.3314 179.06 24.7587 179.592 24.6141C180.124 24.4696 180.693 24.6141 181.222 24.7976C184.226 25.7678 186.966 27.2579 189.605 28.9871" fill="#ABABAB"/>
<path d="M178.882 26.0543C178.797 25.8936 178.756 25.7131 178.765 25.5316C178.785 25.2867 178.875 25.0525 179.023 24.8558C179.171 24.6592 179.371 24.508 179.601 24.4196C180.192 24.2195 180.975 24.3529 181.744 24.6643C182.513 24.9756 183.38 25.3287 184.252 25.7318C185.767 26.4021 187.219 27.206 188.591 28.1337C189.114 28.4923 189.519 28.8093 189.8 29.0289L190.118 29.2874C190.154 29.3193 190.193 29.3473 190.235 29.3708C190.235 29.3708 190.204 29.3319 190.134 29.268L189.831 28.99C189.552 28.7592 189.165 28.434 188.644 28.0587C187.281 27.1047 185.827 26.2863 184.305 25.615C183.419 25.2092 182.563 24.8589 181.777 24.5503C180.991 24.2417 180.186 24.1083 179.548 24.3335C179.306 24.4297 179.097 24.5933 178.946 24.8048C178.795 25.0162 178.708 25.2666 178.695 25.5261C178.691 25.6654 178.721 25.8036 178.782 25.9292C178.807 25.9764 178.841 26.0187 178.882 26.0543Z" fill="#263238"/>
<path d="M165.952 20.6721L172.224 22.6765L171.096 24.2472L164.372 21.7841L165.952 20.6721Z" fill="white"/>
<path d="M173.476 29.4152C173.49 29.3818 170.851 28.0252 167.576 26.4072C164.302 24.7893 161.627 23.4799 161.627 23.5133C161.627 23.5466 164.252 24.9033 167.526 26.5212C170.801 28.1392 173.459 29.4458 173.476 29.4152Z" fill="#263238"/>
<path d="M175.056 63.1421L175.139 59.0332L161.044 64.2568C161.044 64.2568 158.439 55.814 158.439 55.4164L155.315 57.3624L150.123 55.1384L144.932 52.5808L134.432 70.9288L123.416 103.327L149.365 120.596L168.61 100.024L180.314 82.2323L186.746 70.9678L175.056 63.1421Z" fill="#ABABAB"/>
<path d="M159.79 64.1959C159.774 64.0594 159.767 63.9219 159.771 63.7844C159.771 63.5064 159.771 63.1117 159.754 62.6335L159.818 62.6724C158.269 63.4271 156.839 64.404 155.574 65.572L155.463 65.6776V65.5247C155.463 65.3412 155.44 65.1466 155.429 64.9493C155.315 62.9338 155.22 61.1101 155.151 59.7868C155.123 59.1418 155.1 58.6136 155.084 58.2217C155.084 58.0512 155.084 57.9094 155.084 57.7963C155.065 57.7929 155.049 57.7827 155.038 57.7677C155.026 57.7528 155.021 57.7342 155.023 57.7156C155.025 57.697 155.033 57.6797 155.047 57.6671C155.061 57.6545 155.079 57.6475 155.098 57.6475C155.116 57.6475 155.135 57.6545 155.148 57.6671C155.162 57.6797 155.171 57.697 155.173 57.7156C155.174 57.7342 155.169 57.7528 155.158 57.7677C155.147 57.7827 155.13 57.7929 155.112 57.7963C155.112 57.9075 155.134 58.0493 155.151 58.2189C155.179 58.6109 155.215 59.1391 155.259 59.7812C155.349 61.1017 155.457 62.9254 155.571 64.9409C155.571 65.1383 155.594 65.3329 155.602 65.5164L155.482 65.4663C156.757 64.2902 158.209 63.3203 159.785 62.5918L159.852 62.564V62.6335C159.852 63.1117 159.832 63.4981 159.827 63.7844C159.825 63.9223 159.813 64.0598 159.79 64.1959Z" fill="#263238"/>
<path d="M173.757 63.3396C173.707 63.3745 173.653 63.4035 173.596 63.4258L173.125 63.651L171.38 64.4489L165.595 67.0287L162.848 68.2408L162.731 68.2908L162.753 68.1657C162.98 66.8623 163.086 65.5409 163.071 64.2181L163.135 64.257L161.833 64.8881L161.485 65.0493C161.407 65.0855 161.365 65.1022 161.362 65.0966C161.396 65.0689 161.434 65.0455 161.474 65.0271L161.811 64.8436L163.096 64.1764L163.157 64.1431V64.2181C163.196 65.552 163.103 66.8864 162.878 68.2019L162.784 68.1268L165.528 66.9092L171.33 64.3655L173.097 63.6093L173.579 63.4119C173.635 63.3806 173.695 63.3563 173.757 63.3396Z" fill="#263238"/>
<path d="M149.114 42.7788H42.9703C40.728 42.7788 38.9102 44.5922 38.9102 46.8292V120.149C38.9102 122.386 40.728 124.199 42.9703 124.199H149.114C151.357 124.199 153.175 122.386 153.175 120.149V46.8292C153.175 44.5922 151.357 42.7788 149.114 42.7788Z" fill="#455A64"/>
<path d="M34.4434 118.94H158.241V121.116C158.241 122.429 157.718 123.687 156.788 124.615C155.858 125.543 154.596 126.065 153.281 126.065H39.4036C38.0881 126.065 36.8264 125.543 35.8962 124.615C34.966 123.687 34.4434 122.429 34.4434 121.116V118.94Z" fill="#455A64"/>
<path d="M149.789 46.0146H41.9785V114.772H149.789V46.0146Z" fill="#263238"/>
<path d="M84.7788 118.178L86.3143 120.811H107.93L109.357 118.178H84.7788Z" fill="#263238"/>
<path d="M146.877 48.3413H45.108C44.6048 48.3413 44.1968 48.7483 44.1968 49.2504V113.641C44.1968 114.143 44.6048 114.55 45.108 114.55H146.877C147.38 114.55 147.788 114.143 147.788 113.641V49.2504C147.788 48.7483 147.38 48.3413 146.877 48.3413Z" fill="#EBEBEB"/>
<path d="M147.679 114.647H44.0879L44.1966 53.2898H147.679V114.647Z" fill="#FAFAFA"/>
<path d="M52.9022 50.8989C52.894 51.0652 52.8371 51.2253 52.7386 51.3596C52.6401 51.4939 52.5042 51.5965 52.3478 51.6545C52.1915 51.7125 52.0215 51.7236 51.8589 51.6862C51.6964 51.6488 51.5484 51.5647 51.4333 51.4442C51.3182 51.3237 51.241 51.1722 51.2113 51.0084C51.1817 50.8447 51.2008 50.6758 51.2664 50.5228C51.332 50.3698 51.4412 50.2393 51.5803 50.1475C51.7195 50.0558 51.8826 50.0068 52.0494 50.0066C52.281 50.0124 52.5009 50.1096 52.6607 50.2769C52.8206 50.4442 52.9074 50.6679 52.9022 50.8989Z" fill="#263238"/>
<path d="M47.7303 50.8989C47.7221 51.0652 47.6652 51.2253 47.5667 51.3596C47.4682 51.4939 47.3323 51.5965 47.176 51.6545C47.0196 51.7125 46.8496 51.7236 46.6871 51.6862C46.5245 51.6488 46.3765 51.5647 46.2614 51.4442C46.1463 51.3237 46.0691 51.1722 46.0395 51.0084C46.0098 50.8447 46.029 50.6758 46.0945 50.5228C46.1601 50.3698 46.2693 50.2393 46.4085 50.1475C46.5476 50.0558 46.7107 50.0068 46.8776 50.0066C47.1092 50.0124 47.329 50.1096 47.4889 50.2769C47.6487 50.4442 47.7355 50.6679 47.7303 50.8989Z" fill="#263238"/>
<path d="M50.3885 50.8989C50.3803 51.0652 50.3234 51.2253 50.2249 51.3596C50.1264 51.4939 49.9905 51.5965 49.8342 51.6545C49.6778 51.7125 49.5078 51.7236 49.3453 51.6862C49.1827 51.6488 49.0347 51.5647 48.9196 51.4442C48.8045 51.3237 48.7273 51.1722 48.6977 51.0084C48.668 50.8447 48.6872 50.6758 48.7527 50.5228C48.8183 50.3698 48.9275 50.2393 49.0667 50.1475C49.2058 50.0558 49.3689 50.0068 49.5358 50.0066C49.7674 50.0124 49.9872 50.1096 50.1471 50.2769C50.3069 50.4442 50.3937 50.6679 50.3885 50.8989Z" fill="#263238"/>
<path d="M152.194 118.178C152.194 118.222 126.835 118.256 95.5547 118.256C64.2744 118.256 38.9102 118.222 38.9102 118.178C38.9102 118.133 64.2688 118.097 95.5547 118.097C126.841 118.097 152.194 118.133 152.194 118.178Z" fill="#263238"/>
<path d="M84.8655 65.0519C86.5498 64.0377 88.3623 63.2524 90.255 62.7167L91.3696 57.393L100.382 57.2346L101.68 62.5166C103.59 62.987 105.429 63.7088 107.148 64.6627L111.704 61.6854L118.188 67.932L115.368 72.583C116.386 74.2639 117.173 76.0731 117.709 77.9623L123.043 79.0743L123.202 88.0648L117.907 89.3603C117.434 91.2603 116.71 93.0889 115.753 94.7979L118.74 99.3432L112.479 105.812L107.822 102.996C106.137 104.011 104.324 104.796 102.43 105.331L101.315 110.655L92.3004 110.811L91.0046 105.529C89.0997 105.063 87.2657 104.346 85.5511 103.397L80.9949 106.377L74.5103 100.13L77.3332 95.4846C76.3151 93.8037 75.5269 91.9946 74.9896 90.1053L69.6559 88.9933L69.4971 80.0028L74.7917 78.7073C75.2628 76.8019 75.9863 74.9677 76.943 73.2529L73.9585 68.7076L80.2202 62.2386L84.8655 65.0519ZM89.6698 77.031C88.3415 78.4036 87.451 80.1383 87.111 82.0157C86.771 83.8931 86.9966 85.829 87.7594 87.5785C88.5221 89.3281 89.7878 90.8126 91.3963 91.8446C93.0048 92.8765 94.884 93.4095 96.7961 93.3761C98.7082 93.3426 100.567 92.7443 102.139 91.6568C103.71 90.5692 104.923 89.0413 105.624 87.2662C106.324 85.4911 106.482 83.5485 106.076 81.6841C105.67 79.8197 104.72 78.1172 103.344 76.7919C102.43 75.9123 101.351 75.221 100.169 74.7574C98.9872 74.2938 97.7253 74.067 96.4555 74.09C95.1857 74.1129 93.9328 74.3852 92.7685 74.8913C91.6042 75.3973 90.5513 76.1272 89.6698 77.0393V77.031Z" fill="#E0E0E0"/>
<path d="M120.872 68.491C120.995 67.8259 121.206 67.1801 121.499 66.57L120.384 65.0688L122.402 62.7113L124.074 63.5843C124.631 63.2009 125.238 62.8933 125.877 62.6696L126.155 60.8154L129.251 60.5735L129.809 62.3611C130.476 62.4839 131.123 62.6952 131.734 62.9893L133.239 61.8773L135.602 63.8928L134.727 65.5608C135.113 66.1177 135.422 66.7236 135.647 67.3623L137.503 67.6403L137.745 70.7316L135.953 71.2876C135.831 71.9533 135.619 72.5995 135.323 73.2086L136.438 74.7126L134.421 77.0673L132.749 76.1943C132.19 76.5792 131.583 76.8877 130.943 77.1117L130.664 78.966L127.568 79.2079L127.011 77.4175C126.344 77.2956 125.696 77.0853 125.085 76.792L123.578 77.904L121.22 75.8663L122.095 74.1983C121.71 73.6411 121.401 73.0354 121.176 72.3969L119.32 72.1189L119.077 69.0275L120.869 68.4715L120.872 68.491ZM125.071 69.4278C125.005 70.1231 125.159 70.8215 125.512 71.4246C125.865 72.0277 126.399 72.5052 127.038 72.7897C127.677 73.0741 128.39 73.1513 129.076 73.0102C129.761 72.8692 130.385 72.517 130.86 72.0034C131.334 71.4899 131.635 70.8407 131.72 70.1475C131.805 69.4543 131.669 68.752 131.333 68.1396C130.996 67.5272 130.476 67.0356 129.844 66.734C129.213 66.4325 128.503 66.3362 127.813 66.4588C127.094 66.5868 126.436 66.9463 125.941 67.4825C125.446 68.0187 125.14 68.702 125.071 69.4278Z" fill="#E0E0E0"/>
<path d="M53.008 99.524C53.0305 98.7253 53.1608 97.9333 53.3954 97.1694L51.8153 95.632L53.7493 92.524L55.8448 93.2468C56.4301 92.6989 57.0861 92.2314 57.7955 91.8568L57.7788 89.6467L61.3513 88.8127L62.3183 90.8004C63.1189 90.8226 63.9128 90.9526 64.6786 91.1868L66.2363 89.6105L69.3518 91.5399L68.6273 93.6304C69.1765 94.2143 69.6451 94.8687 70.0206 95.5764L72.236 95.5597L73.072 99.1209L71.0768 100.08C71.0519 100.879 70.9207 101.671 70.6866 102.435L72.2667 103.986L70.3327 107.097L68.2371 106.374C67.6524 106.922 66.9963 107.39 66.2865 107.764L66.3032 109.974L62.7335 110.808L61.7637 108.82C60.9653 108.793 60.1742 108.658 59.4118 108.42L57.8568 109.996L54.7385 108.067L55.4631 105.976C54.9138 105.393 54.4452 104.738 54.0697 104.03L51.8404 104.047L51.0044 100.486L52.9969 99.5185L53.008 99.524ZM58.1717 100.525C58.3507 101.28 58.75 101.965 59.3192 102.494C59.8883 103.023 60.6018 103.371 61.3694 103.496C62.1371 103.62 62.9245 103.515 63.6323 103.193C64.34 102.872 64.9363 102.348 65.3459 101.688C65.7554 101.029 65.9598 100.263 65.9333 99.4874C65.9068 98.712 65.6505 97.9618 65.1968 97.3316C64.7431 96.7014 64.1124 96.2194 63.3843 95.9466C62.6562 95.6738 61.8634 95.6224 61.1061 95.7988C60.6011 95.9162 60.1243 96.132 59.7032 96.4338C59.2821 96.7356 58.925 97.1174 58.6523 97.5574C58.3796 97.9974 58.1967 98.4868 58.1143 98.9974C58.0318 99.5081 58.0513 100.03 58.1717 100.533V100.525Z" fill="#E0E0E0"/>
<path d="M59.4203 69.8282C59.5113 69.3261 59.6707 68.8388 59.8941 68.3798L59.0582 67.2455L60.5797 65.4691L61.8336 66.128C62.2543 65.8384 62.7116 65.6056 63.1936 65.4358L63.3997 64.0458L65.735 63.8623L66.153 65.2106C66.6556 65.304 67.1437 65.4629 67.6048 65.6832L68.7417 64.8492L70.5196 66.3671L69.862 67.6181C70.1524 68.0372 70.385 68.4935 70.5532 68.9747L71.9465 69.1776L72.1304 71.5073L70.7817 71.9132C70.6895 72.4146 70.531 72.9016 70.3106 73.3615L71.1466 74.493L69.6251 76.2694L68.3712 75.6106C67.9511 75.9012 67.4936 76.1341 67.0112 76.3028L66.8078 77.6928L64.4726 77.8735L64.0519 76.5252C63.5487 76.4339 63.0602 76.275 62.5999 76.0526L61.4657 76.8866L59.6852 75.3687L60.3428 74.1177C60.0523 73.6985 59.8198 73.2422 59.6516 72.7611L58.2584 72.5553L58.0771 70.2257L59.4287 69.8087L59.4203 69.8282ZM62.5832 70.9596C62.6226 71.4525 62.8076 71.9227 63.1147 72.3108C63.4218 72.6989 63.8372 72.9875 64.3086 73.1403C64.78 73.293 65.2861 73.303 65.7632 73.1689C66.2402 73.0349 66.6668 72.7628 66.989 72.3871C67.3112 72.0114 67.5147 71.5489 67.5736 71.058C67.6325 70.567 67.5442 70.0697 67.32 69.6287C67.0958 69.1878 66.7455 68.823 66.3137 68.5804C65.8818 68.3378 65.3876 68.2284 64.8934 68.2658C64.5642 68.2907 64.2432 68.3803 63.9487 68.5293C63.6543 68.6783 63.3922 68.8838 63.1776 69.1341C62.963 69.3844 62.7999 69.6745 62.6979 69.9878C62.5959 70.301 62.5569 70.6313 62.5832 70.9596Z" fill="#EBEBEB"/>
<path d="M120.989 94.9176C121.07 94.4865 121.206 94.0678 121.396 93.6721L120.668 92.6991L121.975 91.1729L123.054 91.7289C123.415 91.4794 123.807 91.2793 124.221 91.134L124.397 89.933L126.403 89.7773L126.763 90.9366C127.195 91.0157 127.615 91.1522 128.011 91.3425L128.987 90.6169L130.517 91.9207L129.959 92.9938C130.209 93.3547 130.41 93.7474 130.556 94.1614L131.759 94.3365L131.915 96.3381L130.753 96.6968C130.674 97.1282 130.537 97.547 130.347 97.9422L131.074 98.9152L129.767 100.439L128.691 99.8826C128.329 100.131 127.935 100.331 127.521 100.478L127.345 101.676L125.339 101.831L124.979 100.675C124.547 100.595 124.128 100.458 123.731 100.269L122.756 100.995L121.22 99.6908L121.778 98.6177C121.527 98.2578 121.327 97.866 121.181 97.4529L119.98 97.2778L119.821 95.2762L120.983 94.9176H120.989ZM123.706 95.8878C123.739 96.3132 123.898 96.7193 124.162 97.0546C124.427 97.3899 124.785 97.6392 125.192 97.771C125.599 97.9028 126.036 97.9111 126.447 97.7948C126.859 97.6786 127.227 97.4431 127.504 97.1181C127.781 96.7931 127.955 96.3933 128.005 95.9694C128.054 95.5456 127.976 95.1167 127.78 94.7371C127.585 94.3576 127.281 94.0445 126.906 93.8376C126.532 93.6306 126.105 93.5392 125.679 93.5748C125.11 93.6216 124.583 93.8913 124.214 94.3248C123.844 94.7583 123.661 95.3203 123.706 95.8878Z" fill="#EBEBEB"/>
<path d="M96.3436 97.934H82.4855C81.6709 97.9319 80.8712 97.7167 80.1661 97.3097C79.4611 96.9027 78.8755 96.3182 78.4679 95.6146C78.0603 94.9111 77.8449 94.1131 77.8433 93.3005C77.8417 92.4879 78.0539 91.6891 78.4587 90.984L85.392 79.0049L92.3224 67.0259C92.7311 66.3212 93.3185 65.736 94.0255 65.3292C94.7325 64.9224 95.5344 64.7083 96.3505 64.7083C97.1667 64.7083 97.9685 64.9224 98.6756 65.3292C99.3826 65.736 99.9699 66.3212 100.379 67.0259L107.312 79.0049L114.245 90.984C114.65 91.6893 114.862 92.4884 114.861 93.3012C114.859 94.1141 114.643 94.9122 114.235 95.6158C113.827 96.3195 113.241 96.9039 112.536 97.3107C111.831 97.7175 111.03 97.9324 110.216 97.934H96.3436Z" fill="#ABABAB"/>
<path d="M111.269 92.3572C111.269 92.3572 111.305 92.4267 111.375 92.5712C111.494 92.8609 111.539 93.1753 111.507 93.4866C111.475 93.798 111.366 94.0966 111.191 94.356C111.053 94.5609 110.876 94.7366 110.67 94.8731C110.43 95.0252 110.156 95.1151 109.873 95.1344C107.51 95.1594 104.099 95.1539 99.8798 95.165L85.0603 95.1817H82.9425C82.5647 95.1776 82.1975 95.0567 81.8915 94.8356C81.5856 94.6145 81.3559 94.3041 81.2342 93.9473C81.1051 93.5909 81.0809 93.205 81.1646 92.8353C81.1869 92.7436 81.2175 92.6519 81.2482 92.5573C81.2788 92.4628 81.329 92.3822 81.3708 92.2988L81.6495 91.8123C82.0061 91.159 82.3684 90.5029 82.7307 89.8385L87.2228 81.6125L91.7428 73.392C92.4692 72.0632 93.1844 70.7594 93.8885 69.4806C94.0668 69.1636 94.2313 68.8439 94.4207 68.5298C94.609 68.2089 94.878 67.9425 95.201 67.757C95.5176 67.5761 95.8729 67.4731 96.2373 67.4567C96.6018 67.4402 96.9649 67.5108 97.2966 67.6624C97.6256 67.811 97.9128 68.0382 98.1326 68.3241C98.3229 68.6125 98.4951 68.9124 98.6481 69.222C98.9742 69.8169 99.2974 70.4035 99.6123 70.9818C100.248 72.1382 100.862 73.2604 101.454 74.3483C102.644 76.5195 103.751 78.5434 104.759 80.3893C106.777 84.0839 108.407 87.0752 109.536 89.1463L110.829 91.5287C110.974 91.8067 111.085 92.0069 111.16 92.1515C111.235 92.296 111.272 92.3655 111.272 92.3655C111.272 92.3655 111.227 92.296 111.149 92.157L110.804 91.5426L109.485 89.1713C108.349 87.1058 106.699 84.1256 104.67 80.4393L101.351 74.4039L99.5008 71.0429C99.1832 70.4647 98.8627 69.8781 98.5339 69.2832C98.3805 68.9829 98.2102 68.6914 98.0239 68.4103C97.8183 68.1434 97.5504 67.9305 97.2436 67.7903C96.9314 67.6473 96.5895 67.5808 96.2464 67.5963C95.9032 67.6118 95.5687 67.7088 95.2707 67.8793C94.9687 68.0555 94.7172 68.3063 94.5406 68.6076C94.3567 68.9107 94.1895 69.2359 94.0139 69.5528L91.8682 73.4643C90.4135 76.122 88.9031 78.8714 87.3593 81.6903L82.8477 89.9108C82.4827 90.5752 82.1232 91.2341 81.7637 91.8846C81.5678 92.1911 81.4132 92.522 81.3039 92.8687C81.2244 93.2151 81.2466 93.5771 81.368 93.9112C81.4781 94.2423 81.6895 94.5306 81.9725 94.7355C82.2554 94.9405 82.5956 95.0518 82.9453 95.0538H85.0631L99.8826 95.0677L109.873 95.0816C110.147 95.0656 110.412 94.9815 110.645 94.8369C110.848 94.7055 111.023 94.5354 111.16 94.3365C111.375 94.0217 111.489 93.6497 111.489 93.269C111.486 92.9524 111.411 92.6406 111.269 92.3572Z" fill="#263238"/>
<path d="M94.0977 89.794C94.0977 88.568 95.0786 87.6534 96.4747 87.6534C97.8708 87.6534 98.8294 88.568 98.8294 89.794C98.8294 91.02 97.8708 91.9763 96.4747 91.9763C95.0786 91.9763 94.0977 91.0033 94.0977 89.794ZM94.1199 77.2368H98.8294L98.038 86.4886H94.8918L94.1199 77.2368Z" fill="white"/>
<path d="M97.0068 65.6414C96.7216 65.5454 96.426 65.4838 96.1262 65.458C95.3975 65.4423 94.6862 65.6802 94.1142 66.1307C93.5558 66.5952 93.1059 67.1759 92.7961 67.8321C92.5425 68.3325 92.4227 68.6661 92.4004 68.6522C92.4079 68.57 92.4277 68.4895 92.4589 68.4131C92.5286 68.2001 92.6104 67.9912 92.7041 67.7876C92.9988 67.0989 93.4546 66.4907 94.0334 66.014C94.6296 65.5419 95.3806 65.3081 96.1401 65.3579C96.3677 65.3749 96.5908 65.4293 96.8005 65.5191C96.9371 65.5831 97.0123 65.6331 97.0068 65.6414Z" fill="white"/>
<path d="M91.2104 70.7232C91.2677 70.4834 91.3708 70.2568 91.5142 70.056C91.7176 69.7141 91.9099 69.4528 91.9461 69.4722C91.8873 69.7086 91.7832 69.9313 91.6396 70.1283C91.5363 70.3523 91.3906 70.5543 91.2104 70.7232Z" fill="white"/>
<g opacity="0.3">
<path d="M103.299 72.0742L81.7052 85.3459L78.9019 90.1942L104.823 74.7068L103.299 72.0742Z" fill="white"/>
</g>
<g opacity="0.3">
<path d="M106.699 77.9568L78.0771 94.798C78.1919 95.2396 78.4042 95.6499 78.6986 95.999L107.203 78.8297L106.699 77.9568Z" fill="white"/>
</g>
<path d="M177.433 109.365C176.345 108.169 174.934 107.311 173.37 106.893C171.806 106.474 170.155 106.515 168.613 107.008L165.946 104.089L165.576 103.675L144.472 80.5755C145.065 79.2045 145.282 77.7006 145.099 76.2184C144.917 74.7363 144.342 73.3293 143.434 72.1421C142.526 70.9549 141.318 70.0304 139.933 69.4634C138.548 68.8965 137.037 68.7076 135.555 68.9162L134.524 69.3249L138.11 71.724L137.918 75.6299L135.017 78.257L131.102 78.0652L128.543 75.2518L127.487 75.6661C127.184 78.0207 128.766 80.9898 130.491 82.8941C131.578 84.0887 132.985 84.9465 134.547 85.365C136.108 85.7834 137.757 85.745 139.297 85.2543L160.755 108.74L161.412 109.471L163.447 111.695C162.81 113.174 162.613 114.805 162.88 116.393C163.146 117.981 163.864 119.46 164.949 120.652C166.665 122.542 168.945 123.805 171.316 123.741L172.375 123.329L169.814 120.513L170.006 116.621L172.907 113.994L176.809 114.183L178.308 117.411L179.367 116.996C179.693 115.663 179.688 114.271 179.351 112.941C179.014 111.611 178.355 110.383 177.433 109.365Z" fill="#E0E0E0"/>
<g opacity="0.3">
<path d="M177.433 109.365C176.345 108.169 174.934 107.311 173.37 106.893C171.806 106.474 170.155 106.515 168.613 107.008L165.946 104.089L165.576 103.675L144.472 80.5755C145.065 79.2045 145.282 77.7006 145.099 76.2184C144.917 74.7363 144.342 73.3293 143.434 72.1421C142.526 70.9549 141.318 70.0304 139.933 69.4634C138.548 68.8965 137.037 68.7076 135.555 68.9162L134.524 69.3249L138.11 71.724L137.918 75.6299L135.017 78.257L131.102 78.0652L128.543 75.2518L127.487 75.6661C127.184 78.0207 128.766 80.9898 130.491 82.8941C131.578 84.0887 132.985 84.9465 134.547 85.365C136.108 85.7834 137.757 85.745 139.297 85.2543L160.755 108.74L161.412 109.471L163.447 111.695C162.81 113.174 162.613 114.805 162.88 116.393C163.146 117.981 163.864 119.46 164.949 120.652C166.665 122.542 168.945 123.805 171.316 123.741L172.375 123.329L169.814 120.513L170.006 116.621L172.907 113.994L176.809 114.183L178.308 117.411L179.367 116.996C179.693 115.663 179.688 114.271 179.351 112.941C179.014 111.611 178.355 110.383 177.433 109.365Z" fill="black"/>
</g>
<path d="M176.374 109.777C175.286 108.581 173.876 107.722 172.313 107.305C170.749 106.887 169.098 106.928 167.557 107.422L164.887 104.5L164.517 104.086L143.413 80.987C144.007 79.6161 144.223 78.1123 144.041 76.6301C143.859 75.148 143.284 73.7412 142.376 72.554C141.468 71.3669 140.259 70.4426 138.874 69.8761C137.489 69.3095 135.978 69.1212 134.496 69.3305L137.054 72.1438L136.865 76.0358L133.958 78.6741L130.057 78.485L127.499 75.6716C127.145 77.122 127.185 78.6402 127.614 80.0701C128.044 81.5 128.847 82.7901 129.942 83.8075C131.037 84.825 132.383 85.5331 133.843 85.8592C135.303 86.1853 136.824 86.1177 138.249 85.6631L159.707 109.148L160.367 109.88L162.402 112.104C161.811 113.474 161.596 114.976 161.78 116.457C161.964 117.937 162.539 119.342 163.446 120.528C164.354 121.713 165.562 122.636 166.945 123.202C168.329 123.768 169.838 123.957 171.319 123.749L168.758 120.93L168.947 117.038L171.851 114.411L175.752 114.603L178.311 117.416C178.639 116.082 178.635 114.688 178.297 113.356C177.959 112.024 177.299 110.795 176.374 109.777Z" fill="#E0E0E0"/>
<path d="M176.374 109.777C176.374 109.777 176.496 109.91 176.728 110.18C177.057 110.59 177.349 111.029 177.6 111.492C178.569 113.308 178.836 115.416 178.352 117.416V117.472L178.313 117.43L175.752 114.619L175.775 114.633L171.873 114.447H171.901L169.003 117.077V117.046C168.947 118.258 168.883 119.579 168.816 120.952V120.916L171.355 123.71L171.422 123.782L171.324 123.796C169.911 124.001 168.469 123.846 167.133 123.344C165.796 122.843 164.609 122.013 163.681 120.93C162.671 119.76 162.005 118.334 161.758 116.81C161.495 115.212 161.694 113.573 162.332 112.084V112.151L138.174 85.7157L138.249 85.7351C136.723 86.2164 135.092 86.2626 133.54 85.8686C131.379 85.3109 129.524 83.9272 128.377 82.0166C127.23 80.106 126.882 77.8218 127.409 75.6576L127.443 75.5242L127.535 75.6243L130.093 78.4376L130.043 78.4154L133.958 78.6044L133.905 78.6239L136.825 75.994L136.8 76.0441C136.864 74.7263 136.929 73.4281 136.993 72.1381L137.009 72.1882L134.451 69.3748L134.365 69.2776L134.493 69.2608C136.034 69.0436 137.605 69.2528 139.035 69.8656C140.465 70.4784 141.699 71.4713 142.602 72.7359C143.466 73.9423 143.996 75.3548 144.138 76.8308C144.269 78.2535 144.044 79.6864 143.483 81.0008V80.9341L167.601 107.389H167.568C168.716 107.023 169.929 106.906 171.126 107.047C172.322 107.187 173.475 107.582 174.507 108.203C175.031 108.522 175.52 108.895 175.967 109.315C176.246 109.613 176.396 109.766 176.396 109.766L175.956 109.326C175.505 108.908 175.014 108.536 174.49 108.214C173.461 107.602 172.314 107.216 171.123 107.081C169.933 106.946 168.728 107.065 167.587 107.43H167.568V107.414L143.405 81.0036L143.377 80.973L143.394 80.9369C143.946 79.6377 144.166 78.222 144.035 76.8169C143.895 75.3632 143.372 73.9724 142.519 72.786C141.63 71.5418 140.415 70.5651 139.008 69.9626C137.6 69.36 136.054 69.1548 134.538 69.3693L134.579 69.2553L137.104 72.0964L137.124 72.1159V72.1465C137.062 73.4327 136.999 74.73 136.934 76.0385V76.0691L136.912 76.0885L134.011 78.7156L133.989 78.7351H133.958L130.057 78.5434H130.026L130.006 78.521L127.446 75.7077L127.571 75.6771C127.221 77.1144 127.261 78.6186 127.686 80.0357C128.11 81.4527 128.905 82.7315 129.989 83.7409C131.073 84.7504 132.406 85.4542 133.852 85.7802C135.298 86.1062 136.805 86.0427 138.219 85.5961H138.261L138.294 85.6295C147.066 95.2427 155.293 104.242 162.435 112.076L162.463 112.106L162.446 112.145C161.819 113.61 161.621 115.221 161.875 116.793C162.119 118.257 162.748 119.63 163.698 120.773C164.648 121.915 165.884 122.786 167.281 123.296C168.57 123.761 169.953 123.904 171.31 123.713L171.277 123.799L168.722 120.986L168.708 120.969V120.93C168.775 119.559 168.839 118.239 168.9 117.038V117.019V117.005L171.806 114.383H171.823L175.725 114.578C176.661 115.612 177.522 116.56 178.277 117.397H178.227C178.714 115.409 178.458 113.312 177.505 111.5C177.258 111.038 176.972 110.597 176.65 110.183C176.488 109.918 176.374 109.777 176.374 109.777Z" fill="#263238"/>
<path d="M142.452 82.3353C142.432 82.4091 142.401 82.4795 142.36 82.5438C142.262 82.7246 142.153 82.8992 142.034 83.0664C141.243 84.1877 140.129 85.0421 138.84 85.5156C138.647 85.588 138.45 85.6474 138.249 85.6935C138.177 85.7175 138.102 85.7297 138.026 85.7297C138.026 85.7046 138.33 85.6212 138.804 85.4211C140.047 84.9051 141.133 84.0731 141.953 83.008C142.268 82.5994 142.429 82.3242 142.452 82.3353Z" fill="#263238"/>
<path d="M166.018 92.3683L158.004 88.6431L150.839 87.7507L153.47 89.9747C153.47 89.9747 144.207 93.1968 144.046 93.9223C143.884 94.6479 144.776 96.5995 146.409 96.2381C146.409 96.2381 145.492 97.3501 145.874 98.5761C146.255 99.802 147.1 100.033 148.66 99.7464C148.66 99.7464 147.601 101.328 148.432 102.134C149.262 102.941 150.555 102.738 150.555 102.738C150.555 102.738 150.572 104.664 151.592 104.831C152.612 104.998 155.454 104.8 156.516 104.475L161.908 102.807L165.403 102.026L166.018 92.3683Z" fill="#FFBF9D"/>
<path d="M151.266 94.8147C151.297 94.9203 150.229 95.3206 148.886 95.7126C147.543 96.1046 146.423 96.3326 146.392 96.2269C146.362 96.1213 147.429 95.7182 148.772 95.329C150.115 94.9398 151.235 94.709 151.266 94.8147Z" fill="#FF9A6C"/>
<path d="M152.629 98.6149C152.659 98.7206 151.815 99.0681 150.739 99.3933C149.663 99.7186 148.763 99.891 148.73 99.7853C148.697 99.6797 149.546 99.3322 150.622 99.0097C151.698 98.6872 152.598 98.5121 152.629 98.6149Z" fill="#FF9A6C"/>
<path d="M153.852 101.776C153.872 101.895 153.103 102.054 152.2 102.282C151.297 102.51 150.592 102.838 150.528 102.724C150.464 102.61 151.127 102.151 152.088 101.89C153.05 101.628 153.838 101.678 153.852 101.776Z" fill="#FF9A6C"/>
<path d="M154.864 89.655C154.894 89.7634 153.844 90.1443 152.542 90.5918C151.241 91.0394 150.179 91.3814 150.135 91.2785C150.09 91.1756 151.099 90.6641 152.414 90.2138C153.73 89.7634 154.836 89.5493 154.864 89.655Z" fill="#FF9A6C"/>
<path d="M164.508 91.6677L181.867 97.9394L180.852 109.824L161.741 102.137L164.508 91.6677Z" fill="#FFBF9D"/>
<path d="M186.779 70.8706C186.779 70.8706 189.042 73.2031 190.36 77.3981C191.678 81.5931 197.884 99.3768 197.734 105.034C197.569 110.886 193.621 115.061 184.943 112.748C179.765 111.358 173.596 109.134 173.596 109.134L177.982 94.7508L181.412 95.6321L175.872 85.2571L186.779 70.8706Z" fill="#ABABAB"/>
<path d="M182.805 77.6676C182.839 77.6926 180.437 81.1036 177.444 85.2875C174.451 89.4714 172.002 92.8519 171.968 92.8241C171.935 92.7963 174.337 89.388 177.33 85.2041C180.323 81.0202 182.775 77.6453 182.805 77.6676Z" fill="#263238"/>
<path d="M189.449 97.578C189.449 97.578 189.298 97.5057 189.028 97.3806C188.643 97.2093 188.245 97.0689 187.838 96.9608C187.322 96.8191 186.698 96.6828 186.004 96.5355L183.753 96.0407C182.156 95.6848 180.71 95.354 179.668 95.1066L178.433 94.8063C178.28 94.7771 178.13 94.7344 177.984 94.6785C178.139 94.6912 178.293 94.7163 178.444 94.7535L179.69 95.0065C180.74 95.2289 182.198 95.543 183.786 95.8989L186.035 96.4076C186.726 96.5633 187.35 96.7079 187.866 96.8635C188.275 96.982 188.673 97.1383 189.053 97.3306C189.156 97.3829 189.255 97.4413 189.351 97.5057C189.387 97.5255 189.42 97.5498 189.449 97.578Z" fill="#263238"/>
<g opacity="0.3">
<path d="M193.885 98.212C193.83 97.8706 193.692 97.5477 193.485 97.2708C193.277 96.9939 193.005 96.7712 192.692 96.6218C192.065 96.3257 191.389 96.1449 190.697 96.088C187.579 95.6599 184.424 95.532 181.278 95.4236L181.557 95.5487C185.444 96.2655 189.249 97.372 192.913 98.8514C193.113 98.9623 193.349 98.9902 193.57 98.9292C193.69 98.8559 193.784 98.7479 193.84 98.6197C193.897 98.4916 193.912 98.3493 193.885 98.212Z" fill="black"/>
</g>
<g opacity="0.3">
<path d="M122.374 43.0679C119.448 42.5703 115.948 43.4182 113.022 42.9206C112.587 42.8483 112.108 42.7788 111.723 43.0012C111.26 43.2653 111.102 43.8546 111.079 44.3912C111.068 45.1273 111.21 45.8578 111.498 46.5357C111.786 47.2136 112.213 47.824 112.751 48.3277C113.847 49.327 115.215 49.9792 116.683 50.2014C117.851 50.3988 119.108 50.3598 120.147 49.7983C121.975 48.8086 122.853 45.0723 122.374 43.0679Z" fill="black"/>
</g>
<path d="M111.018 48.4081C111.018 48.4081 109.243 46.3314 108.987 45.3751C108.817 44.7412 108.9 42.9648 108.987 41.8389C109.006 41.4595 109.137 41.0941 109.362 40.7879C109.588 40.4816 109.898 40.2478 110.255 40.1153C110.359 40.0636 110.476 40.0412 110.592 40.0505C110.709 40.0598 110.82 40.1004 110.915 40.1682C111.156 39.842 111.427 39.5386 111.723 39.2619C112.42 38.5502 112.752 38.0692 114.284 38.5113C114.284 38.5113 115.413 37.3242 116.062 37.4132C116.498 37.4775 116.929 37.5703 117.352 37.6912C117.352 37.6912 119.824 37.5855 120.331 38.3695C120.619 38.7234 121.008 38.9821 121.446 39.1117C121.833 39.2479 122.188 39.4599 122.491 39.7355C122.794 40.011 123.038 40.3443 123.21 40.7158C123.498 41.3981 123.665 42.1253 123.703 42.8647L121.195 42.9648C121.195 42.9648 121.373 48.7222 120.741 49.1865C120.108 49.6507 119.869 49.4839 119.869 49.4839C119.869 49.4839 119.387 50.835 117.506 49.837C117.506 49.837 115.945 50.3068 115.276 49.6646C114.607 49.0224 112.161 42.8536 112.161 42.8536L112.23 45.9116C112.23 45.9116 113.521 47.8938 112.888 48.358C112.256 48.8223 111.018 48.4081 111.018 48.4081Z" fill="#FFBF9D"/>
<path d="M114.15 40.6047C114.21 40.7201 114.257 40.8412 114.293 40.9661L114.632 41.9669C114.911 42.8009 115.293 43.9907 115.7 45.289C116.107 46.5872 116.447 47.791 116.831 48.5805C116.979 48.8986 117.15 49.2052 117.344 49.4979C117.48 49.7064 117.567 49.812 117.558 49.8204C117.55 49.8287 117.528 49.8009 117.483 49.7509C117.418 49.6811 117.356 49.6078 117.299 49.5313C117.085 49.2475 116.899 48.944 116.742 48.625C116.327 47.8216 115.978 46.6289 115.566 45.3335C115.154 44.038 114.794 42.8537 114.538 41.9975C114.421 41.5888 114.32 41.2496 114.242 40.9828C114.2 40.8598 114.169 40.7333 114.15 40.6047Z" fill="#FF9A6C"/>
<path d="M117.235 39.8931C117.291 40.0124 117.334 40.1373 117.364 40.2656L117.662 41.297C117.904 42.1671 118.219 43.3737 118.587 44.7081C118.955 46.0425 119.253 47.2545 119.47 48.133C119.573 48.55 119.657 48.9003 119.724 49.1727C119.761 49.2997 119.786 49.4301 119.796 49.5619C119.744 49.4414 119.701 49.3168 119.668 49.1894C119.59 48.9114 119.493 48.5723 119.373 48.158C119.127 47.2879 118.799 46.0814 118.448 44.747C118.096 43.4126 117.782 42.2005 117.561 41.322C117.461 40.9022 117.375 40.5547 117.311 40.2795C117.273 40.1534 117.248 40.024 117.235 39.8931Z" fill="#FF9A6C"/>
</svg>
