<svg width="22" height="22" viewBox="0 0 22 22" fill="none" xmlns="http://www.w3.org/2000/svg">
<mask id="path-1-inside-1_340_208" fill="white">
<path d="M20.8142 7.8915L20.8068 7.85467C20.8019 7.83011 20.7995 7.80801 20.7921 7.78346C20.7872 7.76873 20.7823 7.75645 20.7798 7.74172C20.7725 7.72208 20.7676 7.69998 20.7577 7.68034C20.7528 7.6656 20.7455 7.65333 20.7381 7.63859C20.7283 7.61895 20.7185 7.60176 20.7086 7.58212C20.7013 7.56984 20.6939 7.55511 20.6841 7.54283C20.6644 7.51337 20.6423 7.48391 20.6202 7.45444C20.608 7.43971 20.5932 7.42252 20.5785 7.40779C20.5687 7.39551 20.5564 7.38569 20.5441 7.37587C20.5294 7.36114 20.5122 7.34886 20.4975 7.33659C20.4852 7.32676 20.4729 7.31694 20.4582 7.30712C20.4533 7.30467 20.4484 7.29975 20.4435 7.2973L11.4691 1.32341C11.3307 1.23094 11.1679 1.18158 11.0014 1.18158C10.8349 1.18158 10.6721 1.23094 10.5336 1.32341L1.55439 7.30221C1.54948 7.30466 1.54457 7.30958 1.53966 7.31203C1.52739 7.32185 1.51511 7.33167 1.50038 7.3415C1.48319 7.35377 1.46846 7.3685 1.45372 7.38078C1.44145 7.3906 1.43163 7.40288 1.41935 7.4127C1.40462 7.42743 1.38989 7.44217 1.37761 7.45935C1.35306 7.48636 1.33341 7.51583 1.31377 7.54775C1.3064 7.56002 1.29658 7.5723 1.28922 7.58703C1.27939 7.60422 1.26957 7.62386 1.25975 7.64351C1.25239 7.65578 1.24747 7.67051 1.24011 7.68525C1.23274 7.70489 1.22538 7.72699 1.21801 7.74663C1.2131 7.76136 1.20819 7.77364 1.20573 7.78837C1.20082 7.81047 1.19591 7.83502 1.191 7.85958L1.18364 7.89641C1.17872 7.93324 1.17627 7.97007 1.17627 8.0069V13.9857C1.17627 14.0225 1.17872 14.0594 1.18364 14.0962L1.191 14.133L1.20573 14.2042C1.21064 14.219 1.2131 14.2312 1.21801 14.246C1.22538 14.2681 1.23274 14.2877 1.24011 14.3073C1.24502 14.3221 1.25239 14.3344 1.25975 14.3491C1.26957 14.3687 1.27694 14.3859 1.28922 14.4056C1.29658 14.4178 1.30395 14.4326 1.31377 14.4448C1.32605 14.462 1.33587 14.4792 1.3506 14.4964L1.38006 14.5332C1.39234 14.548 1.40707 14.5652 1.42181 14.5799C1.43163 14.5922 1.4439 14.602 1.45618 14.6118C1.47091 14.6265 1.4881 14.6388 1.50283 14.6511C1.51511 14.6609 1.52739 14.6707 1.54212 14.6806C1.54703 14.683 1.55194 14.6879 1.55685 14.6904L10.5336 20.6692C10.6711 20.7625 10.8356 20.8116 11.0026 20.8116C11.1647 20.8116 11.3292 20.7649 11.4716 20.6692L20.4484 14.6904C20.4533 14.6879 20.4582 14.683 20.4631 14.6806C20.4754 14.6707 20.4877 14.6609 20.5024 14.6511C20.5196 14.6388 20.5343 14.6241 20.549 14.6118C20.5613 14.602 20.5711 14.5897 20.5834 14.5799C20.5981 14.5652 20.6129 14.5504 20.6252 14.5332L20.6546 14.4964L20.6914 14.4448C20.6988 14.4326 20.7086 14.4203 20.716 14.4056C20.7258 14.3859 20.7356 14.3687 20.7455 14.3491C20.7528 14.3368 20.7577 14.3221 20.7651 14.3073C20.7725 14.2877 20.7798 14.2656 20.7872 14.246C20.7921 14.2337 20.797 14.219 20.7995 14.2042C20.8068 14.1821 20.8093 14.1576 20.8142 14.133L20.8216 14.0962C20.8265 14.0594 20.8289 14.0225 20.8289 13.9857V8.00199C20.8216 7.96516 20.8191 7.92833 20.8142 7.8915ZM11.8448 3.59953L18.4595 8.00444L15.5057 9.97855L11.8473 7.53301V3.59953H11.8448ZM10.1555 3.59953V7.53301L6.49703 9.97855L3.54323 8.00444L10.1555 3.59953V3.59953ZM2.86556 9.58078L4.97716 10.9926L2.86556 12.4044V9.58078ZM10.1555 18.3832L3.54323 13.9783L6.49703 12.0042L10.1555 14.4498V18.3832V18.3832ZM11.0002 12.9864L8.01444 10.9926L11.0002 8.99641L13.9859 10.9902L11.0002 12.9864ZM11.8448 18.3832V14.4498L15.5033 12.0042L18.4571 13.9783L11.8448 18.3832V18.3832ZM19.1348 12.402L17.0231 10.9902L19.1348 9.57833V12.402Z"/>
</mask>
<path d="M20.8142 7.8915L20.8068 7.85467C20.8019 7.83011 20.7995 7.80801 20.7921 7.78346C20.7872 7.76873 20.7823 7.75645 20.7798 7.74172C20.7725 7.72208 20.7676 7.69998 20.7577 7.68034C20.7528 7.6656 20.7455 7.65333 20.7381 7.63859C20.7283 7.61895 20.7185 7.60176 20.7086 7.58212C20.7013 7.56984 20.6939 7.55511 20.6841 7.54283C20.6644 7.51337 20.6423 7.48391 20.6202 7.45444C20.608 7.43971 20.5932 7.42252 20.5785 7.40779C20.5687 7.39551 20.5564 7.38569 20.5441 7.37587C20.5294 7.36114 20.5122 7.34886 20.4975 7.33659C20.4852 7.32676 20.4729 7.31694 20.4582 7.30712C20.4533 7.30467 20.4484 7.29975 20.4435 7.2973L11.4691 1.32341C11.3307 1.23094 11.1679 1.18158 11.0014 1.18158C10.8349 1.18158 10.6721 1.23094 10.5336 1.32341L1.55439 7.30221C1.54948 7.30466 1.54457 7.30958 1.53966 7.31203C1.52739 7.32185 1.51511 7.33167 1.50038 7.3415C1.48319 7.35377 1.46846 7.3685 1.45372 7.38078C1.44145 7.3906 1.43163 7.40288 1.41935 7.4127C1.40462 7.42743 1.38989 7.44217 1.37761 7.45935C1.35306 7.48636 1.33341 7.51583 1.31377 7.54775C1.3064 7.56002 1.29658 7.5723 1.28922 7.58703C1.27939 7.60422 1.26957 7.62386 1.25975 7.64351C1.25239 7.65578 1.24747 7.67051 1.24011 7.68525C1.23274 7.70489 1.22538 7.72699 1.21801 7.74663C1.2131 7.76136 1.20819 7.77364 1.20573 7.78837C1.20082 7.81047 1.19591 7.83502 1.191 7.85958L1.18364 7.89641C1.17872 7.93324 1.17627 7.97007 1.17627 8.0069V13.9857C1.17627 14.0225 1.17872 14.0594 1.18364 14.0962L1.191 14.133L1.20573 14.2042C1.21064 14.219 1.2131 14.2312 1.21801 14.246C1.22538 14.2681 1.23274 14.2877 1.24011 14.3073C1.24502 14.3221 1.25239 14.3344 1.25975 14.3491C1.26957 14.3687 1.27694 14.3859 1.28922 14.4056C1.29658 14.4178 1.30395 14.4326 1.31377 14.4448C1.32605 14.462 1.33587 14.4792 1.3506 14.4964L1.38006 14.5332C1.39234 14.548 1.40707 14.5652 1.42181 14.5799C1.43163 14.5922 1.4439 14.602 1.45618 14.6118C1.47091 14.6265 1.4881 14.6388 1.50283 14.6511C1.51511 14.6609 1.52739 14.6707 1.54212 14.6806C1.54703 14.683 1.55194 14.6879 1.55685 14.6904L10.5336 20.6692C10.6711 20.7625 10.8356 20.8116 11.0026 20.8116C11.1647 20.8116 11.3292 20.7649 11.4716 20.6692L20.4484 14.6904C20.4533 14.6879 20.4582 14.683 20.4631 14.6806C20.4754 14.6707 20.4877 14.6609 20.5024 14.6511C20.5196 14.6388 20.5343 14.6241 20.549 14.6118C20.5613 14.602 20.5711 14.5897 20.5834 14.5799C20.5981 14.5652 20.6129 14.5504 20.6252 14.5332L20.6546 14.4964L20.6914 14.4448C20.6988 14.4326 20.7086 14.4203 20.716 14.4056C20.7258 14.3859 20.7356 14.3687 20.7455 14.3491C20.7528 14.3368 20.7577 14.3221 20.7651 14.3073C20.7725 14.2877 20.7798 14.2656 20.7872 14.246C20.7921 14.2337 20.797 14.219 20.7995 14.2042C20.8068 14.1821 20.8093 14.1576 20.8142 14.133L20.8216 14.0962C20.8265 14.0594 20.8289 14.0225 20.8289 13.9857V8.00199C20.8216 7.96516 20.8191 7.92833 20.8142 7.8915ZM11.8448 3.59953L18.4595 8.00444L15.5057 9.97855L11.8473 7.53301V3.59953H11.8448ZM10.1555 3.59953V7.53301L6.49703 9.97855L3.54323 8.00444L10.1555 3.59953V3.59953ZM2.86556 9.58078L4.97716 10.9926L2.86556 12.4044V9.58078ZM10.1555 18.3832L3.54323 13.9783L6.49703 12.0042L10.1555 14.4498V18.3832V18.3832ZM11.0002 12.9864L8.01444 10.9926L11.0002 8.99641L13.9859 10.9902L11.0002 12.9864ZM11.8448 18.3832V14.4498L15.5033 12.0042L18.4571 13.9783L11.8448 18.3832V18.3832ZM19.1348 12.402L17.0231 10.9902L19.1348 9.57833V12.402Z" fill="#2188FF" stroke="#2188FF" stroke-width="0.00223214" mask="url(#path-1-inside-1_340_208)"/>
</svg>
